# Blender v2.76 (sub 0) OBJ File: ''
# www.blender.org
mtllib Background_3.mtl
o Box047
v 21.057541 13.894517 2.933329
v 20.987446 13.894517 2.933331
v 20.987444 2.228733 2.933328
v 21.057539 2.228733 2.933326
v 1.561983 13.894517 2.933331
v 1.561986 2.228745 2.933328
v -2.435423 13.894516 2.933331
v -2.558192 13.894516 2.933331
v -2.558186 2.228740 2.933328
v -2.435416 2.228734 2.933328
v -2.558194 13.894517 2.820662
v -2.558187 2.228740 2.820662
v -2.558195 13.894517 -0.267707
v -2.558188 2.228741 -0.267710
v -2.558197 13.894520 -18.661146
v -2.558196 13.894520 -18.792685
v -2.558191 2.228747 -18.792688
v -2.558192 2.228745 -18.661146
v -2.435426 13.894520 -18.792686
v -2.435420 2.228741 -18.792690
v 1.561980 13.894524 -18.792686
v 1.561983 2.228749 -18.792690
v 20.987450 13.894526 -18.792686
v 21.057545 13.894524 -18.792686
v 21.057541 2.228745 -18.792690
v 20.987446 2.228743 -18.792690
v 21.057545 13.894524 -18.661144
v 21.057541 2.228739 -18.661148
v 21.057543 13.894518 -0.267704
v 21.057539 2.228733 -0.267709
v 21.057541 13.894518 2.820664
v 21.057539 2.228733 2.820662
v 1.561979 13.894523 -18.661144
v 1.561983 2.228747 -18.661148
v 20.987446 2.228739 -18.661148
v 20.987450 13.894526 -18.661144
v -2.435425 13.894517 -0.267706
v -2.435419 2.228735 -0.267708
v -2.435421 2.228739 -18.661148
v -2.435426 13.894520 -18.661146
v 1.561981 13.894518 2.820662
v 1.561985 2.228743 2.820662
v -2.435417 2.228734 2.820662
v -2.435424 13.894517 2.820662
v 20.987450 13.894518 -0.267705
v 20.987446 2.228731 -0.267709
v 20.987444 2.228733 2.820662
v 20.987446 13.894518 2.820664
v 20.987442 -0.029697 2.086654
v 21.057537 -0.029697 2.086654
v 21.057537 -0.029701 1.973983
v 21.057539 -0.029703 -0.267711
v 21.057541 -0.029701 -18.661150
v 21.057539 -0.029697 -18.792690
v 20.987446 -0.029697 -18.792690
v 1.561980 -0.029691 -18.792690
v -2.435428 -0.029693 -18.792690
v -2.558196 -0.029693 -18.792688
v -2.558197 -0.029695 -18.661146
v -2.558198 -0.029701 -0.267708
v 1.561980 -0.029693 -18.661146
v -2.435428 -0.029695 -18.661146
v 20.987444 -0.029703 -0.267711
v 20.987446 -0.029701 -18.661150
v 1.561980 -0.029694 1.973987
v 20.987442 -0.029701 1.973983
v 1.561980 -0.029692 2.086654
v -2.435428 -0.029701 -0.267710
v -2.435428 -0.029699 1.973987
v -2.435427 -0.029699 2.086654
v -2.558198 -0.029699 1.973987
v -2.558196 -0.029696 2.086654
v 1.561980 13.894518 -0.267706
v 1.561980 14.967027 -18.661144
v 1.561982 14.967020 -0.267703
v 20.987450 14.967023 -0.267706
v 20.987450 14.967028 -18.661146
v 1.561983 14.967020 2.933332
v 20.987446 14.967023 2.933332
v -2.558195 14.967021 -0.267703
v -2.558194 14.967021 2.820664
v 1.561981 14.967028 -18.792686
v -2.435425 14.967025 -18.792686
v 21.057543 14.967021 -0.267706
v 21.057545 14.967027 -18.661146
v 20.987450 14.967029 -18.792686
v 1.561983 14.967021 2.820664
v -2.435423 14.967018 2.820664
v -2.435422 14.967017 2.933332
v -2.558196 14.967025 -18.792685
v -2.558197 14.967024 -18.661142
v -2.558192 14.967020 2.933332
v 21.057541 14.967020 2.933330
v 21.057541 14.967021 2.820663
v 21.057545 14.967027 -18.792686
v -2.435424 14.967018 -0.267703
v -2.435426 14.967024 -18.661144
v 20.987446 14.967024 2.820663
v 1.561980 -0.029697 -0.267708
v 1.561981 -0.155176 -18.661146
v -2.435423 -0.155184 -0.267711
v -2.435426 -0.155182 -18.661150
v 1.561983 -0.155170 2.086654
v -2.435423 -0.155182 2.086654
v 21.057541 -0.155190 -0.267708
v 21.057539 -0.155186 1.973987
v 1.561982 -0.155174 -18.792690
v 20.987446 -0.155180 -18.792690
v -2.558193 -0.155184 -0.267711
v -2.558195 -0.155182 -18.661150
v -2.435426 -0.155178 -18.792690
v 1.561982 -0.155176 1.973983
v 20.987446 -0.155186 1.973987
v 20.987444 -0.155184 2.086654
v 21.057539 -0.155184 -18.792690
v 21.057541 -0.155185 -18.661146
v 21.057537 -0.155184 2.086654
v -2.558192 -0.155182 2.086654
v -2.558192 -0.155182 1.973983
v -2.558194 -0.155178 -18.792686
v 20.987446 -0.155186 -0.267708
v 20.987446 -0.155184 -18.661146
v -2.435423 -0.155182 1.973983
vt 1.000000 0.000000
vt 0.963175 0.000000
vt 0.226727 0.000000
vt 0.036825 0.000000
vt 0.000000 0.000000
vt 0.000000 0.024700
vt 0.000000 0.110254
vt 0.000000 0.975300
vt 0.000000 1.000000
vt 0.036825 1.000000
vt 0.226727 1.000000
vt 0.963175 1.000000
vt 1.000000 1.000000
vt 1.000000 0.975300
vt 1.000000 0.110254
vt 1.000000 0.024700
vt 0.226727 0.975300
vt 0.963175 0.975300
vt 0.036825 0.110254
vt 0.036825 0.975300
vt 0.226727 0.024700
vt 0.036825 0.024700
vt 0.963175 0.110254
vt 0.963175 0.024700
vt 0.773273 1.000000
vt 0.773273 0.975300
vt 0.773273 0.024700
vt 0.773273 0.000000
vt 0.226727 0.110254
vt 0.773273 0.110254
vt 0.110254 1.000000
vt 0.110254 0.000000
vt 0.024700 0.000000
vt 0.024700 1.000000
vt 0.889746 1.000000
vt 0.889746 0.000000
vt 0.975300 0.000000
vt 0.975300 1.000000
vn 0.000000 -0.000000 1.000000
vn -1.000000 -0.000000 0.000000
vn -0.000000 0.000000 -1.000000
vn 1.000000 -0.000000 -0.000000
vn 0.000000 -0.171600 0.985200
vn 0.000000 0.171600 -0.985200
vn -0.000000 1.000000 -0.000000
vn 0.000000 -1.000000 0.000000
usemtl wire_176026026
s off
f 1/1/1 2/2/1 3/2/1 4/1/1
f 5/3/1 6/3/1 3/2/1 2/2/1
f 7/4/1 8/5/1 9/5/1 10/4/1
f 8/5/2 11/6/2 12/6/2 9/5/2
f 13/7/2 14/7/2 12/6/2 11/6/2
f 15/8/2 16/9/2 17/9/2 18/8/2
f 16/9/3 19/10/3 20/10/3 17/9/3
f 21/11/3 22/11/3 20/10/3 19/10/3
f 23/12/3 24/13/3 25/13/3 26/12/3
f 24/13/4 27/14/4 28/14/4 25/13/4
f 29/15/4 30/15/4 28/14/4 27/14/4
f 31/16/4 1/1/4 4/1/4 32/16/4
f 33/17/1 34/17/1 35/18/1 36/18/1
f 37/19/4 38/19/4 39/20/4 40/20/4
f 41/21/3 42/21/3 43/22/3 44/22/3
f 45/23/2 46/23/2 47/24/2 48/24/2
f 49/4/5 50/5/5 4/5/5 3/4/5
f 50/5/4 51/6/4 32/6/4 4/5/4
f 52/7/4 30/7/4 32/6/4 51/6/4
f 53/8/4 54/9/4 25/9/4 28/8/4
f 54/9/3 55/10/3 26/10/3 25/9/3
f 56/25/3 22/25/3 26/10/3 55/10/3
f 57/12/3 58/13/3 17/13/3 20/12/3
f 58/13/2 59/14/2 18/14/2 17/13/2
f 60/15/2 14/15/2 18/14/2 59/14/2
f 61/26/1 34/26/1 39/18/1 62/18/1
f 63/19/2 46/19/2 35/20/2 64/20/2
f 65/27/6 42/27/6 47/22/6 66/22/6
f 7/4/1 10/4/1 6/3/1 5/3/1
f 23/12/3 26/12/3 22/11/3 21/11/3
f 40/20/1 39/20/1 34/17/1 33/17/1
f 48/24/3 47/24/3 42/21/3 41/21/3
f 49/4/5 3/4/5 6/28/5 67/28/5
f 57/12/3 20/12/3 22/25/3 56/25/3
f 64/20/1 35/20/1 34/26/1 61/26/1
f 15/8/2 18/8/2 14/7/2 13/7/2
f 31/16/4 32/16/4 30/15/4 29/15/4
f 44/22/4 43/22/4 38/19/4 37/19/4
f 36/18/2 35/18/2 46/23/2 45/23/2
f 53/8/4 28/8/4 30/7/4 52/7/4
f 66/22/2 47/22/2 46/19/2 63/19/2
f 62/18/4 39/18/4 38/23/4 68/23/4
f 65/27/7 69/24/7 70/24/7 67/27/7
f 69/24/7 68/23/7 60/23/7 71/24/7
f 70/24/7 69/24/7 71/24/7 72/24/7
f 6/3/8 10/4/8 43/4/8 42/3/8
f 10/4/8 9/5/8 12/5/8 43/4/8
f 38/19/8 43/22/8 12/22/8 14/19/8
f 6/3/2 42/3/2 65/3/2 67/3/2
f 38/19/1 14/19/1 60/19/1 68/19/1
s 1
f 33/17/8 73/29/8 37/19/8 40/20/8
f 74/26/7 75/30/7 76/19/7 77/20/7
f 78/25/1 5/28/1 2/4/1 79/10/1
f 80/31/2 13/32/2 11/33/2 81/34/2
f 82/11/3 21/3/3 19/4/3 83/10/3
f 84/35/4 29/36/4 27/33/4 85/34/4
f 82/25/7 74/26/7 77/20/7 86/10/7
f 78/28/7 87/27/7 88/24/7 89/2/7
f 90/13/2 16/1/2 15/37/2 91/38/2
f 8/5/2 92/9/2 81/34/2 11/33/2
f 93/13/4 1/1/4 31/37/4 94/38/4
f 24/5/4 95/9/4 85/34/4 27/33/4
f 91/14/7 80/15/7 96/23/7 97/18/7
f 94/6/7 84/7/7 76/19/7 98/22/7
f 92/13/1 8/1/1 7/2/1 89/12/1
f 1/5/1 93/9/1 79/10/1 2/4/1
f 95/13/3 24/1/3 23/2/3 86/12/3
f 16/5/3 90/9/3 83/10/3 19/4/3
f 90/13/7 91/14/7 97/18/7 83/12/7
f 85/8/7 95/9/7 86/10/7 77/20/7
f 93/5/7 94/6/7 98/22/7 79/4/7
f 81/16/7 92/1/7 89/2/7 88/24/7
f 61/26/7 99/30/7 63/19/7 64/20/7
f 103/11/1 67/3/1 70/4/1 104/10/1
f 105/31/4 52/32/4 51/33/4 106/34/4
f 107/25/3 56/28/3 55/4/3 108/10/3
f 109/35/2 60/36/2 59/33/2 110/34/2
f 107/11/8 100/17/8 102/20/8 111/10/8
f 103/3/8 112/21/8 113/24/8 114/2/8
f 115/13/4 54/1/4 53/37/4 116/38/4
f 50/5/4 117/9/4 106/34/4 51/33/4
f 118/13/2 72/1/2 71/37/2 119/38/2
f 58/5/2 120/9/2 110/34/2 59/33/2
f 116/14/8 105/15/8 121/23/8 122/18/8
f 119/6/8 109/7/8 101/19/8 123/22/8
f 117/13/1 50/1/1 49/2/1 114/12/1
f 72/5/1 118/9/1 104/10/1 70/4/1
f 120/13/3 58/1/3 57/2/3 111/12/3
f 54/5/3 115/9/3 108/10/3 55/4/3
f 115/13/8 116/14/8 122/18/8 108/12/8
f 110/8/8 120/9/8 111/10/8 102/20/8
f 118/5/8 119/6/8 123/22/8 104/4/8
f 106/16/8 117/1/8 114/2/8 113/24/8
f 36/18/8 45/23/8 73/29/8 33/17/8
f 97/18/7 96/23/7 75/30/7 74/26/7
f 89/12/1 7/2/1 5/28/1 78/25/1
f 86/12/3 23/2/3 21/3/3 82/11/3
f 83/12/7 97/18/7 74/26/7 82/25/7
f 79/4/7 98/22/7 87/27/7 78/28/7
f 62/18/7 68/23/7 99/30/7 61/26/7
f 114/12/1 49/2/1 67/3/1 103/11/1
f 111/12/3 57/2/3 56/28/3 107/25/3
f 108/12/8 122/18/8 100/17/8 107/11/8
f 104/4/8 123/22/8 112/21/8 103/3/8
f 41/21/8 44/22/8 37/19/8 73/29/8
f 87/27/7 98/22/7 76/19/7 75/30/7
f 91/38/2 15/37/2 13/32/2 80/31/2
f 94/38/4 31/37/4 29/36/4 84/35/4
f 81/16/7 88/24/7 96/23/7 80/15/7
f 85/8/7 77/20/7 76/19/7 84/7/7
f 65/27/7 66/22/7 63/19/7 99/30/7
f 116/38/4 53/37/4 52/32/4 105/31/4
f 119/38/2 71/37/2 60/36/2 109/35/2
f 106/16/8 113/24/8 121/23/8 105/15/8
f 110/8/8 102/20/8 101/19/8 109/7/8
f 48/24/8 41/21/8 73/29/8 45/23/8
f 88/24/7 87/27/7 75/30/7 96/23/7
f 69/24/7 65/27/7 99/30/7 68/23/7
