# Blender v2.76 (sub 0) OBJ File: ''
# www.blender.org
mtllib background.mtl
o Background
v -20.206533 7.762102 -3.514567
v -20.946205 7.762101 -0.989705
v -20.946205 4.484959 -0.989705
v -20.206533 4.484960 -3.514567
v -21.349514 7.762101 1.610176
v -21.349514 4.484959 1.610176
v -21.409542 7.762101 4.240468
v -21.409542 4.484959 4.240467
v -21.125257 7.762101 6.856040
v -21.125257 4.484958 6.856040
v -20.501541 7.762101 9.412017
v -20.501541 4.484958 9.412017
v -19.549093 7.762100 11.864541
v -19.549093 4.484957 11.864541
v -18.284254 7.762100 14.171535
v -18.284254 4.484957 14.171535
v -16.728727 7.762099 16.293415
v -16.728727 4.484956 16.293413
v -14.909203 7.762099 18.193773
v -14.909203 4.484956 18.193771
v -12.856897 7.762099 19.840006
v -12.856897 4.484956 19.840004
v -10.607026 7.762099 21.203867
v -10.607026 4.484956 21.203865
v -8.198191 7.762098 22.261953
v -8.198191 4.484955 22.261951
v -5.671721 7.762097 22.996111
v -5.671721 4.484955 22.996109
v -3.070967 7.762097 23.393745
v -3.070967 4.484955 23.393744
v -0.440552 7.762097 23.448034
v -0.440552 4.484955 23.448032
v 2.174393 7.762097 23.158045
v 2.174393 4.484955 23.158043
v 4.729004 7.762097 22.528749
v 4.729004 4.484955 22.528748
v -20.946205 1.207816 -0.989706
v -20.206533 1.207817 -3.514568
v -21.349514 1.207816 1.610175
v -21.409542 1.207815 4.240466
v -21.125257 1.207816 6.856039
v -20.501541 1.207815 9.412016
v -19.549093 1.207815 11.864540
v -18.284256 1.207815 14.171534
v -16.728729 1.207814 16.293413
v -14.909204 1.207814 18.193771
v -12.856897 1.207814 19.840004
v -10.607026 1.207814 21.203865
v -8.198191 1.207813 22.261951
v -5.671721 1.207812 22.996109
v -3.070967 1.207812 23.393744
v -0.440552 1.207812 23.448032
v 2.174393 1.207812 23.158043
v 4.729004 1.207812 22.528748
v -20.946205 -2.069326 -0.989706
v -20.206533 -2.069325 -3.514568
v -21.349514 -2.069326 1.610175
v -21.409542 -2.069327 4.240466
v -21.125257 -2.069327 6.856039
v -20.501541 -2.069327 9.412016
v -19.549093 -2.069328 11.864540
v -18.284256 -2.069328 14.171534
v -16.728729 -2.069329 16.293413
v -14.909204 -2.069329 18.193773
v -12.856898 -2.069329 19.840004
v -10.607026 -2.069329 21.203865
v -8.198191 -2.069330 22.261951
v -5.671721 -2.069330 22.996109
v -3.070967 -2.069330 23.393744
v -0.440552 -2.069330 23.448032
v 2.174393 -2.069330 23.158043
v 4.729004 -2.069330 22.528748
v -20.946205 -5.346469 -0.989707
v -20.206533 -5.346468 -3.514569
v -21.349514 -5.346469 1.610174
v -21.409542 -5.346469 4.240465
v -21.125259 -5.346470 6.856038
v -20.501543 -5.346470 9.412015
v -19.549093 -5.346471 11.864539
v -18.284256 -5.346471 14.171533
v -16.728729 -5.346472 16.293413
v -14.909204 -5.346472 18.193773
v -12.856898 -5.346472 19.840004
v -10.607027 -5.346472 21.203865
v -8.198191 -5.346473 22.261951
v -5.671722 -5.346473 22.996109
v -3.070967 -5.346473 23.393744
v -0.440552 -5.346473 23.448032
v 2.174393 -5.346473 23.158043
v 4.729004 -5.346474 22.528748
v -20.946205 -8.623610 -0.989707
v -20.206533 -8.623609 -3.514570
v -21.349514 -8.623610 1.610174
v -21.409542 -8.623610 4.240465
v -21.125259 -8.623610 6.856038
v -20.501543 -8.623611 9.412015
v -19.549093 -8.623611 11.864539
v -18.284256 -8.623611 14.171533
v -16.728729 -8.623612 16.293411
v -14.909204 -8.623612 18.193771
v -12.856898 -8.623612 19.840002
v -10.607027 -8.623613 21.203863
v -8.198191 -8.623613 22.261950
v -5.671722 -8.623613 22.996107
v -3.070967 -8.623613 23.393742
v -0.440552 -8.623613 23.448030
v 2.174393 -8.623613 23.158041
v 4.729004 -8.623615 22.528746
v -20.946205 -11.900754 -0.989708
v -20.206535 -11.900753 -3.514570
v -21.349514 -11.900754 1.610173
v -21.409542 -11.900755 4.240464
v -21.125259 -11.900755 6.856037
v -20.501543 -11.900756 9.412014
v -19.549093 -11.900756 11.864538
v -18.284256 -11.900756 14.171532
v -16.728729 -11.900757 16.293411
v -14.909204 -11.900757 18.193771
v -12.856898 -11.900757 19.840002
v -10.607027 -11.900758 21.203863
v -8.198191 -11.900758 22.261950
v -5.671722 -11.900758 22.996107
v -3.070968 -11.900758 23.393742
v -0.440552 -11.900758 23.448030
v 2.174393 -11.900758 23.158041
v 4.729002 -11.900758 22.528746
vt 0.333333 0.400000
vt 0.354167 0.400000
vt 0.354167 0.500000
vt 0.333333 0.500000
vt 0.375000 0.400000
vt 0.375000 0.500000
vt 0.395833 0.400000
vt 0.395833 0.500000
vt 0.416667 0.400000
vt 0.416667 0.500000
vt 0.437500 0.400000
vt 0.437500 0.500000
vt 0.458333 0.400000
vt 0.458333 0.500000
vt 0.479167 0.400000
vt 0.479167 0.500000
vt 0.500000 0.400000
vt 0.500000 0.500000
vt 0.520833 0.400000
vt 0.520833 0.500000
vt 0.541667 0.400000
vt 0.541667 0.500000
vt 0.562500 0.400000
vt 0.562500 0.500000
vt 0.583333 0.400000
vt 0.583333 0.500000
vt 0.604167 0.400000
vt 0.604167 0.500000
vt 0.625000 0.400000
vt 0.625000 0.500000
vt 0.645833 0.400000
vt 0.645833 0.500000
vt 0.666667 0.400000
vt 0.666667 0.500000
vt 0.687500 0.400000
vt 0.687500 0.500000
vt 0.354167 0.600000
vt 0.333333 0.600000
vt 0.375000 0.600000
vt 0.395833 0.600000
vt 0.416667 0.600000
vt 0.437500 0.600000
vt 0.458333 0.600000
vt 0.479167 0.600000
vt 0.500000 0.600000
vt 0.520833 0.600000
vt 0.541667 0.600000
vt 0.562500 0.600000
vt 0.583333 0.600000
vt 0.604167 0.600000
vt 0.625000 0.600000
vt 0.645833 0.600000
vt 0.666667 0.600000
vt 0.687500 0.600000
vt 0.354167 0.700000
vt 0.333333 0.700000
vt 0.375000 0.700000
vt 0.395833 0.700000
vt 0.416667 0.700000
vt 0.437500 0.700000
vt 0.458333 0.700000
vt 0.479167 0.700000
vt 0.500000 0.700000
vt 0.520833 0.700000
vt 0.541667 0.700000
vt 0.562500 0.700000
vt 0.583333 0.700000
vt 0.604167 0.700000
vt 0.625000 0.700000
vt 0.645833 0.700000
vt 0.666667 0.700000
vt 0.687500 0.700000
vt 0.354167 0.800000
vt 0.333333 0.800000
vt 0.375000 0.800000
vt 0.395833 0.800000
vt 0.416667 0.800000
vt 0.437500 0.800000
vt 0.458333 0.800000
vt 0.479167 0.800000
vt 0.500000 0.800000
vt 0.520833 0.800000
vt 0.541667 0.800000
vt 0.562500 0.800000
vt 0.583333 0.800000
vt 0.604167 0.800000
vt 0.625000 0.800000
vt 0.645833 0.800000
vt 0.666667 0.800000
vt 0.687500 0.800000
vt 0.354167 0.900000
vt 0.333333 0.900000
vt 0.375000 0.900000
vt 0.395833 0.900000
vt 0.416667 0.900000
vt 0.437500 0.900000
vt 0.458333 0.900000
vt 0.479167 0.900000
vt 0.500000 0.900000
vt 0.520833 0.900000
vt 0.541667 0.900000
vt 0.562500 0.900000
vt 0.583333 0.900000
vt 0.604167 0.900000
vt 0.625000 0.900000
vt 0.645833 0.900000
vt 0.666667 0.900000
vt 0.687500 0.900000
vt 0.354167 1.000000
vt 0.333333 1.000000
vt 0.375000 1.000000
vt 0.395833 1.000000
vt 0.416667 1.000000
vt 0.437500 1.000000
vt 0.458333 1.000000
vt 0.479167 1.000000
vt 0.500000 1.000000
vt 0.520833 1.000000
vt 0.541667 1.000000
vt 0.562500 1.000000
vt 0.583333 1.000000
vt 0.604167 1.000000
vt 0.625000 1.000000
vt 0.645833 1.000000
vt 0.666667 1.000000
vt 0.687500 1.000000
vn 0.959700 0.000000 0.281100
vn 0.976000 0.000000 0.217700
vn 0.996100 -0.000000 0.088200
vn 0.999100 -0.000000 -0.042700
vn 0.984900 0.000000 -0.172900
vn 0.953900 0.000000 -0.300200
vn 0.906500 0.000000 -0.422300
vn 0.843500 0.000000 -0.537100
vn 0.766000 0.000000 -0.642800
vn 0.675500 0.000000 -0.737400
vn 0.573300 0.000000 -0.819400
vn 0.461300 0.000000 -0.887300
vn 0.341300 0.000000 -0.939900
vn 0.215600 0.000000 -0.976500
vn 0.086100 0.000000 -0.996300
vn -0.044900 0.000000 -0.999000
vn -0.175100 0.000000 -0.984600
vn -0.239200 0.000000 -0.971000
usemtl Material__620
s 1
f 1/1/1 2/2/2 3/3/2 4/4/1
f 2/2/2 5/5/3 6/6/3 3/3/2
f 5/5/3 7/7/4 8/8/4 6/6/3
f 7/7/4 9/9/5 10/10/5 8/8/4
f 9/9/5 11/11/6 12/12/6 10/10/5
f 11/11/6 13/13/7 14/14/7 12/12/6
f 13/13/7 15/15/8 16/16/8 14/14/7
f 15/15/8 17/17/9 18/18/9 16/16/8
f 17/17/9 19/19/10 20/20/10 18/18/9
f 19/19/10 21/21/11 22/22/11 20/20/10
f 21/21/11 23/23/12 24/24/12 22/22/11
f 23/23/12 25/25/13 26/26/13 24/24/12
f 25/25/13 27/27/14 28/28/14 26/26/13
f 27/27/14 29/29/15 30/30/15 28/28/14
f 29/29/15 31/31/16 32/32/16 30/30/15
f 31/31/16 33/33/17 34/34/17 32/32/16
f 33/33/17 35/35/18 36/36/18 34/34/17
f 4/4/1 3/3/2 37/37/2 38/38/1
f 3/3/2 6/6/3 39/39/3 37/37/2
f 6/6/3 8/8/4 40/40/4 39/39/3
f 8/8/4 10/10/5 41/41/5 40/40/4
f 10/10/5 12/12/6 42/42/6 41/41/5
f 12/12/6 14/14/7 43/43/7 42/42/6
f 14/14/7 16/16/8 44/44/8 43/43/7
f 16/16/8 18/18/9 45/45/9 44/44/8
f 18/18/9 20/20/10 46/46/10 45/45/9
f 20/20/10 22/22/11 47/47/11 46/46/10
f 22/22/11 24/24/12 48/48/12 47/47/11
f 24/24/12 26/26/13 49/49/13 48/48/12
f 26/26/13 28/28/14 50/50/14 49/49/13
f 28/28/14 30/30/15 51/51/15 50/50/14
f 30/30/15 32/32/16 52/52/16 51/51/15
f 32/32/16 34/34/17 53/53/17 52/52/16
f 34/34/17 36/36/18 54/54/18 53/53/17
f 38/38/1 37/37/2 55/55/2 56/56/1
f 37/37/2 39/39/3 57/57/3 55/55/2
f 39/39/3 40/40/4 58/58/4 57/57/3
f 40/40/4 41/41/5 59/59/5 58/58/4
f 41/41/5 42/42/6 60/60/6 59/59/5
f 42/42/6 43/43/7 61/61/7 60/60/6
f 43/43/7 44/44/8 62/62/8 61/61/7
f 44/44/8 45/45/9 63/63/9 62/62/8
f 45/45/9 46/46/10 64/64/10 63/63/9
f 46/46/10 47/47/11 65/65/11 64/64/10
f 47/47/11 48/48/12 66/66/12 65/65/11
f 48/48/12 49/49/13 67/67/13 66/66/12
f 49/49/13 50/50/14 68/68/14 67/67/13
f 50/50/14 51/51/15 69/69/15 68/68/14
f 51/51/15 52/52/16 70/70/16 69/69/15
f 52/52/16 53/53/17 71/71/17 70/70/16
f 53/53/17 54/54/18 72/72/18 71/71/17
f 56/56/1 55/55/2 73/73/2 74/74/1
f 55/55/2 57/57/3 75/75/3 73/73/2
f 57/57/3 58/58/4 76/76/4 75/75/3
f 58/58/4 59/59/5 77/77/5 76/76/4
f 59/59/5 60/60/6 78/78/6 77/77/5
f 60/60/6 61/61/7 79/79/7 78/78/6
f 61/61/7 62/62/8 80/80/8 79/79/7
f 62/62/8 63/63/9 81/81/9 80/80/8
f 63/63/9 64/64/10 82/82/10 81/81/9
f 64/64/10 65/65/11 83/83/11 82/82/10
f 65/65/11 66/66/12 84/84/12 83/83/11
f 66/66/12 67/67/13 85/85/13 84/84/12
f 67/67/13 68/68/14 86/86/14 85/85/13
f 68/68/14 69/69/15 87/87/15 86/86/14
f 69/69/15 70/70/16 88/88/16 87/87/15
f 70/70/16 71/71/17 89/89/17 88/88/16
f 71/71/17 72/72/18 90/90/18 89/89/17
f 74/74/1 73/73/2 91/91/2 92/92/1
f 73/73/2 75/75/3 93/93/3 91/91/2
f 75/75/3 76/76/4 94/94/4 93/93/3
f 76/76/4 77/77/5 95/95/5 94/94/4
f 77/77/5 78/78/6 96/96/6 95/95/5
f 78/78/6 79/79/7 97/97/7 96/96/6
f 79/79/7 80/80/8 98/98/8 97/97/7
f 80/80/8 81/81/9 99/99/9 98/98/8
f 81/81/9 82/82/10 100/100/10 99/99/9
f 82/82/10 83/83/11 101/101/11 100/100/10
f 83/83/11 84/84/12 102/102/12 101/101/11
f 84/84/12 85/85/13 103/103/13 102/102/12
f 85/85/13 86/86/14 104/104/14 103/103/13
f 86/86/14 87/87/15 105/105/15 104/104/14
f 87/87/15 88/88/16 106/106/16 105/105/15
f 88/88/16 89/89/17 107/107/17 106/106/16
f 89/89/17 90/90/18 108/108/18 107/107/17
f 92/92/1 91/91/2 109/109/2 110/110/1
f 91/91/2 93/93/3 111/111/3 109/109/2
f 93/93/3 94/94/4 112/112/4 111/111/3
f 94/94/4 95/95/5 113/113/5 112/112/4
f 95/95/5 96/96/6 114/114/6 113/113/5
f 96/96/6 97/97/7 115/115/7 114/114/6
f 97/97/7 98/98/8 116/116/8 115/115/7
f 98/98/8 99/99/9 117/117/9 116/116/8
f 99/99/9 100/100/10 118/118/10 117/117/9
f 100/100/10 101/101/11 119/119/11 118/118/10
f 101/101/11 102/102/12 120/120/12 119/119/11
f 102/102/12 103/103/13 121/121/13 120/120/12
f 103/103/13 104/104/14 122/122/14 121/121/13
f 104/104/14 105/105/15 123/123/15 122/122/14
f 105/105/15 106/106/16 124/124/16 123/123/15
f 106/106/16 107/107/17 125/125/17 124/124/16
f 107/107/17 108/108/18 126/126/18 125/125/17
