# Blender v2.76 (sub 0) OBJ File: ''
# www.blender.org
mtllib Background_2.mtl
o Box047
v 2.030745 13.894520 -19.223665
v 2.030746 13.894518 -0.830227
v -1.966659 13.894517 -0.830227
v -1.966660 13.894517 -19.223667
v 2.030746 14.967024 -19.223665
v 2.030748 14.967020 -0.830225
v 21.456215 14.967023 -0.830228
v 21.456215 14.967025 -19.223667
v 2.030749 14.967021 2.370810
v 2.030749 13.894518 2.370810
v 21.456211 13.894518 2.370810
v 21.456211 14.967024 2.370810
v -2.089429 14.967021 -0.830225
v -2.089429 13.894517 -0.830228
v -2.089428 13.894517 2.258141
v -2.089428 14.967021 2.258143
v 2.030747 14.967025 -19.355207
v 2.030746 13.894521 -19.355207
v -1.966660 13.894517 -19.355207
v -1.966659 14.967022 -19.355207
v 21.526308 14.967021 -0.830228
v 21.526308 13.894518 -0.830225
v 21.526310 13.894521 -19.223665
v 21.526310 14.967024 -19.223667
v 21.456215 14.967026 -19.355207
v 2.030749 14.967021 2.258143
v -1.966657 14.967018 2.258143
v -1.966656 14.967018 2.370810
v -2.089430 14.967022 -19.355206
v -2.089430 13.894517 -19.355206
v -2.089431 13.894517 -19.223667
v -2.089431 14.967021 -19.223663
v -2.089426 13.894517 2.370810
v -2.089426 14.967021 2.370810
v 21.526306 14.967021 2.370808
v 21.526306 13.894518 2.370808
v 21.526306 13.894518 2.258143
v 21.526306 14.967021 2.258141
v 21.526310 13.894521 -19.355207
v 21.526310 14.967024 -19.355207
v -1.966658 14.967018 -0.830225
v -1.966660 14.967021 -19.223665
v 21.456211 14.967024 2.258141
v -1.966657 13.894517 2.370810
v 21.456215 13.894524 -19.355207
v 21.456209 2.228733 2.370808
v 21.526304 2.228733 2.370806
v 2.030752 2.228745 2.370808
v -2.089420 2.228740 2.370808
v -1.966650 2.228734 2.370808
v -2.089421 2.228740 2.258142
v -2.089422 2.228741 -0.830230
v -2.089425 2.228744 -19.355207
v -2.089426 2.228742 -19.223665
v -1.966654 2.228738 -19.355209
v 2.030749 2.228746 -19.355209
v 21.526306 2.228742 -19.355209
v 21.456211 2.228740 -19.355209
v 21.526306 2.228736 -19.223667
v 21.526304 2.228733 -0.830229
v 21.526304 2.228733 2.258142
v 2.030749 2.228744 -19.223667
v 21.456211 2.228736 -19.223667
v 21.456215 13.894523 -19.223665
v -1.966653 2.228735 -0.830228
v -1.966655 2.228736 -19.223667
v 2.030747 13.894518 2.258141
v 2.030751 2.228743 2.258142
v -1.966651 2.228734 2.258142
v -1.966658 13.894517 2.258141
v 21.456215 13.894518 -0.830226
v 21.456211 2.228731 -0.830229
v 21.456209 2.228733 2.258142
v 21.456211 13.894518 2.258143
v 2.030746 -0.029696 -19.223665
v 2.030746 -0.029697 -0.830227
v 21.456209 -0.029703 -0.830230
v 21.456211 -0.029704 -19.223669
v 2.030747 -0.155179 -19.223665
v 2.030747 -0.155182 -0.830230
v -1.966657 -0.155184 -0.830230
v -1.966660 -0.155185 -19.223669
v 2.030749 -0.155170 1.524135
v 2.030746 -0.029692 1.524135
v -1.966661 -0.029699 1.524135
v -1.966657 -0.155182 1.524135
v 21.526306 -0.155190 -0.830227
v 21.526304 -0.029703 -0.830230
v 21.526302 -0.029701 1.411464
v 21.526304 -0.155186 1.411468
v 2.030748 -0.155177 -19.355209
v 2.030746 -0.029694 -19.355209
v 21.456211 -0.029700 -19.355209
v 21.456211 -0.155183 -19.355209
v -2.089427 -0.155184 -0.830230
v -2.089432 -0.029701 -0.830227
v -2.089431 -0.029698 -19.223665
v -2.089429 -0.155185 -19.223669
v -1.966660 -0.155181 -19.355209
v 2.030748 -0.155176 1.411464
v 21.456211 -0.155186 1.411468
v 21.456209 -0.155184 1.524135
v 21.526304 -0.155187 -19.355209
v 21.526304 -0.029700 -19.355209
v 21.526306 -0.029704 -19.223669
v 21.526306 -0.155188 -19.223665
v 21.526302 -0.029697 1.524135
v 21.526302 -0.155184 1.524135
v -2.089426 -0.155182 1.524135
v -2.089430 -0.029696 1.524135
v -2.089432 -0.029699 1.411468
v -2.089426 -0.155182 1.411464
v -2.089430 -0.029696 -19.355207
v -2.089428 -0.155181 -19.355206
v 21.456211 -0.155186 -0.830227
v 21.456211 -0.155187 -19.223665
v -1.966657 -0.155182 1.411464
v 21.456207 -0.029697 1.524135
v -1.966662 -0.029696 -19.355209
v -1.966662 -0.029698 -19.223665
v 2.030746 -0.029694 1.411468
v 21.456207 -0.029701 1.411464
v -1.966662 -0.029701 -0.830229
v -1.966662 -0.029699 1.411468
vt 1.000000 0.000000
vt 0.963175 0.000000
vt 0.226727 0.000000
vt 0.036825 0.000000
vt 0.000000 0.000000
vt 0.000000 0.024700
vt 0.000000 0.110254
vt 0.000000 0.975300
vt 0.000000 1.000000
vt 0.036825 1.000000
vt 0.226727 1.000000
vt 0.963175 1.000000
vt 1.000000 1.000000
vt 1.000000 0.975300
vt 1.000000 0.110254
vt 1.000000 0.024700
vt 0.226727 0.975300
vt 0.963175 0.975300
vt 0.036825 0.110254
vt 0.036825 0.975300
vt 0.226727 0.024700
vt 0.036825 0.024700
vt 0.963175 0.110254
vt 0.963175 0.024700
vt 0.773273 1.000000
vt 0.773273 0.975300
vt 0.773273 0.024700
vt 0.773273 0.000000
vt 0.226727 0.110254
vt 0.773273 0.110254
vt 0.110254 1.000000
vt 0.110254 0.000000
vt 0.024700 0.000000
vt 0.024700 1.000000
vt 0.889746 1.000000
vt 0.889746 0.000000
vt 0.975300 0.000000
vt 0.975300 1.000000
vn 0.000000 -0.000000 1.000000
vn -1.000000 -0.000000 0.000000
vn -0.000000 0.000000 -1.000000
vn 1.000000 -0.000000 -0.000000
vn 0.000000 -0.171600 0.985200
vn 0.000000 0.171600 -0.985200
vn -0.000000 1.000000 -0.000000
vn 0.000000 -1.000000 0.000000
usemtl wire_176026026
s off
f 36/1/1 11/2/1 46/2/1 47/1/1
f 10/3/1 48/3/1 46/2/1 11/2/1
f 44/4/1 33/5/1 49/5/1 50/4/1
f 33/5/2 15/6/2 51/6/2 49/5/2
f 14/7/2 52/7/2 51/6/2 15/6/2
f 31/8/2 30/9/2 53/9/2 54/8/2
f 30/9/3 19/10/3 55/10/3 53/9/3
f 18/11/3 56/11/3 55/10/3 19/10/3
f 45/12/3 39/13/3 57/13/3 58/12/3
f 39/13/4 23/14/4 59/14/4 57/13/4
f 22/15/4 60/15/4 59/14/4 23/14/4
f 37/16/4 36/1/4 47/1/4 61/16/4
f 1/17/1 62/17/1 63/18/1 64/18/1
f 3/19/4 65/19/4 66/20/4 4/20/4
f 67/21/3 68/21/3 69/22/3 70/22/3
f 71/23/2 72/23/2 73/24/2 74/24/2
f 118/4/5 107/5/5 47/5/5 46/4/5
f 107/5/4 89/6/4 61/6/4 47/5/4
f 88/7/4 60/7/4 61/6/4 89/6/4
f 105/8/4 104/9/4 57/9/4 59/8/4
f 104/9/3 93/10/3 58/10/3 57/9/3
f 92/25/3 56/25/3 58/10/3 93/10/3
f 119/12/3 113/13/3 53/13/3 55/12/3
f 113/13/2 97/14/2 54/14/2 53/13/2
f 96/15/2 52/15/2 54/14/2 97/14/2
f 75/26/1 62/26/1 66/18/1 120/18/1
f 77/19/2 72/19/2 63/20/2 78/20/2
f 121/27/6 68/27/6 73/22/6 122/22/6
f 44/4/1 50/4/1 48/3/1 10/3/1
f 45/12/3 58/12/3 56/11/3 18/11/3
f 4/20/1 66/20/1 62/17/1 1/17/1
f 74/24/3 73/24/3 68/21/3 67/21/3
f 118/4/5 46/4/5 48/28/5 84/28/5
f 119/12/3 55/12/3 56/25/3 92/25/3
f 78/20/1 63/20/1 62/26/1 75/26/1
f 31/8/2 54/8/2 52/7/2 14/7/2
f 37/16/4 61/16/4 60/15/4 22/15/4
f 70/22/4 69/22/4 65/19/4 3/19/4
f 64/18/2 63/18/2 72/23/2 71/23/2
f 105/8/4 59/8/4 60/7/4 88/7/4
f 122/22/2 73/22/2 72/19/2 77/19/2
f 120/18/4 66/18/4 65/23/4 123/23/4
f 121/27/7 124/24/7 85/24/7 84/27/7
f 124/24/7 123/23/7 96/23/7 111/24/7
f 85/24/7 124/24/7 111/24/7 110/24/7
f 48/3/8 50/4/8 69/4/8 68/3/8
f 50/4/8 49/5/8 51/5/8 69/4/8
f 65/19/8 69/22/8 51/22/8 52/19/8
f 48/3/2 68/3/2 121/3/2 84/3/2
f 65/19/1 52/19/1 96/19/1 123/19/1
s 1
f 1/17/8 2/29/8 3/19/8 4/20/8
f 5/26/7 6/30/7 7/19/7 8/20/7
f 9/25/1 10/28/1 11/4/1 12/10/1
f 13/31/2 14/32/2 15/33/2 16/34/2
f 17/11/3 18/3/3 19/4/3 20/10/3
f 21/35/4 22/36/4 23/33/4 24/34/4
f 17/25/7 5/26/7 8/20/7 25/10/7
f 9/28/7 26/27/7 27/24/7 28/2/7
f 29/13/2 30/1/2 31/37/2 32/38/2
f 33/5/2 34/9/2 16/34/2 15/33/2
f 35/13/4 36/1/4 37/37/4 38/38/4
f 39/5/4 40/9/4 24/34/4 23/33/4
f 32/14/7 13/15/7 41/23/7 42/18/7
f 38/6/7 21/7/7 7/19/7 43/22/7
f 34/13/1 33/1/1 44/2/1 28/12/1
f 36/5/1 35/9/1 12/10/1 11/4/1
f 40/13/3 39/1/3 45/2/3 25/12/3
f 30/5/3 29/9/3 20/10/3 19/4/3
f 29/13/7 32/14/7 42/18/7 20/12/7
f 24/8/7 40/9/7 25/10/7 8/20/7
f 35/5/7 38/6/7 43/22/7 12/4/7
f 16/16/7 34/1/7 28/2/7 27/24/7
f 75/26/7 76/30/7 77/19/7 78/20/7
f 79/17/8 80/29/8 81/19/8 82/20/8
f 83/11/1 84/3/1 85/4/1 86/10/1
f 87/31/4 88/32/4 89/33/4 90/34/4
f 91/25/3 92/28/3 93/4/3 94/10/3
f 95/35/2 96/36/2 97/33/2 98/34/2
f 91/11/8 79/17/8 82/20/8 99/10/8
f 83/3/8 100/21/8 101/24/8 102/2/8
f 103/13/4 104/1/4 105/37/4 106/38/4
f 107/5/4 108/9/4 90/34/4 89/33/4
f 109/13/2 110/1/2 111/37/2 112/38/2
f 113/5/2 114/9/2 98/34/2 97/33/2
f 106/14/8 87/15/8 115/23/8 116/18/8
f 112/6/8 95/7/8 81/19/8 117/22/8
f 108/13/1 107/1/1 118/2/1 102/12/1
f 110/5/1 109/9/1 86/10/1 85/4/1
f 114/13/3 113/1/3 119/2/3 99/12/3
f 104/5/3 103/9/3 94/10/3 93/4/3
f 103/13/8 106/14/8 116/18/8 94/12/8
f 98/8/8 114/9/8 99/10/8 82/20/8
f 109/5/8 112/6/8 117/22/8 86/4/8
f 90/16/8 108/1/8 102/2/8 101/24/8
f 64/18/8 71/23/8 2/29/8 1/17/8
f 42/18/7 41/23/7 6/30/7 5/26/7
f 28/12/1 44/2/1 10/28/1 9/25/1
f 25/12/3 45/2/3 18/3/3 17/11/3
f 20/12/7 42/18/7 5/26/7 17/25/7
f 12/4/7 43/22/7 26/27/7 9/28/7
f 120/18/7 123/23/7 76/30/7 75/26/7
f 116/18/8 115/23/8 80/29/8 79/17/8
f 102/12/1 118/2/1 84/3/1 83/11/1
f 99/12/3 119/2/3 92/28/3 91/25/3
f 94/12/8 116/18/8 79/17/8 91/11/8
f 86/4/8 117/22/8 100/21/8 83/3/8
f 67/21/8 70/22/8 3/19/8 2/29/8
f 26/27/7 43/22/7 7/19/7 6/30/7
f 32/38/2 31/37/2 14/32/2 13/31/2
f 38/38/4 37/37/4 22/36/4 21/35/4
f 16/16/7 27/24/7 41/23/7 13/15/7
f 24/8/7 8/20/7 7/19/7 21/7/7
f 121/27/7 122/22/7 77/19/7 76/30/7
f 100/21/8 117/22/8 81/19/8 80/29/8
f 106/38/4 105/37/4 88/32/4 87/31/4
f 112/38/2 111/37/2 96/36/2 95/35/2
f 90/16/8 101/24/8 115/23/8 87/15/8
f 98/8/8 82/20/8 81/19/8 95/7/8
f 74/24/8 67/21/8 2/29/8 71/23/8
f 27/24/7 26/27/7 6/30/7 41/23/7
f 124/24/7 121/27/7 76/30/7 123/23/7
f 101/24/8 100/21/8 80/29/8 115/23/8
