# Blender v2.76 (sub 0) OBJ File: ''
# www.blender.org
mtllib ground.mtl
o Ground
v 1.829303 0.246124 1.459497
v 1.830789 0.246123 -0.936910
v 1.899220 0.246123 -0.936868
v 1.829303 2.464091 1.459497
v 1.897734 2.464091 1.459539
v 1.899400 2.464062 -1.227339
v 1.830969 2.464062 -1.227382
v 1.899430 2.464062 -1.275525
v -1.994985 0.246124 1.457126
v -1.994985 0.295944 1.457126
v -1.993529 0.295944 -0.891094
v 1.829303 0.295944 1.459497
v 1.897734 0.246124 1.459540
v 1.899190 0.295944 -0.888681
v 1.830999 2.464062 -1.275567
v 1.899430 0.584794 -1.275537
v -1.993319 0.634615 -1.229763
v -1.993319 2.464062 -1.229752
v -1.993289 2.464062 -1.277938
v 1.899400 0.634615 -1.227350
v -1.993499 0.246123 -0.939281
v 1.830759 0.295944 -0.888723
v 1.897734 0.295944 1.459540
v 1.830999 0.584794 -1.275579
v 1.899210 0.296790 -0.921702
v 1.899230 0.299330 -0.953029
v 1.899248 0.303564 -0.982662
v 1.899265 0.309490 -1.010603
v 1.899282 0.317111 -1.036850
v 1.899297 0.326424 -1.061403
v 1.899311 0.337431 -1.084263
v 1.899324 0.350131 -1.105430
v 1.899336 0.364524 -1.124904
v 1.899347 0.380611 -1.142684
v 1.899357 0.398391 -1.158771
v 1.899366 0.417865 -1.173164
v 1.899374 0.439032 -1.185864
v 1.899381 0.461892 -1.196871
v 1.899387 0.486446 -1.206184
v 1.899391 0.512693 -1.213804
v 1.899395 0.540634 -1.219731
v 1.899398 0.570267 -1.223964
v 1.899399 0.601594 -1.226504
v 1.830799 0.299330 -0.953071
v 1.830834 0.309490 -1.010645
v 1.830866 0.326424 -1.061445
v 1.830893 0.350131 -1.105473
v 1.830916 0.380611 -1.142726
v 1.830935 0.417865 -1.173206
v 1.830950 0.461892 -1.196913
v 1.830960 0.512693 -1.213846
v 1.830967 0.570267 -1.224006
v 1.830969 0.634615 -1.227392
v 1.899429 0.551774 -1.274690
v -1.993320 0.601594 -1.228917
v -1.993289 0.584794 -1.277950
v 1.830998 0.551774 -1.274733
v 1.899428 0.520447 -1.272150
v 1.830997 0.520447 -1.272193
v 1.899425 0.490813 -1.267917
v 1.830994 0.490813 -1.267960
v 1.899421 0.462873 -1.261991
v 1.830990 0.462873 -1.262033
v 1.899417 0.436626 -1.254371
v 1.830986 0.436626 -1.254413
v 1.899411 0.412072 -1.245058
v 1.830980 0.412072 -1.245100
v 1.899404 0.389212 -1.234051
v 1.830973 0.389212 -1.234093
v 1.899396 0.368045 -1.221351
v 1.830965 0.368045 -1.221393
v 1.899387 0.348571 -1.206957
v 1.830956 0.348571 -1.207000
v 1.899377 0.330791 -1.190871
v 1.830946 0.330791 -1.190913
v 1.899366 0.314704 -1.173091
v 1.830935 0.314704 -1.173133
v 1.899354 0.300311 -1.153617
v 1.830923 0.300311 -1.153659
v 1.899341 0.287611 -1.132450
v 1.830910 0.287611 -1.132493
v 1.899327 0.276604 -1.109590
v 1.830896 0.276604 -1.109632
v 1.899312 0.267290 -1.085036
v 1.830881 0.267290 -1.085079
v 1.899295 0.259670 -1.058789
v 1.830864 0.259670 -1.058832
v 1.899278 0.253743 -1.030849
v 1.830847 0.253743 -1.030892
v 1.899260 0.249510 -1.001215
v 1.830829 0.249510 -1.001258
v 1.899240 0.246970 -0.969888
v 1.830809 0.246970 -0.969931
v 1.830968 0.601594 -1.226546
v -1.993321 0.570267 -1.226377
v -1.993324 0.540634 -1.222144
v 1.830964 0.540634 -1.219773
v -1.993328 0.512693 -1.216217
v -1.993333 0.486446 -1.208597
v 1.830956 0.486446 -1.206226
v -1.993338 0.461892 -1.199284
v -1.993345 0.439032 -1.188277
v 1.830943 0.439032 -1.185907
v -1.993353 0.417865 -1.175577
v -1.993362 0.398391 -1.161184
v 1.830926 0.398391 -1.158813
v -1.993372 0.380611 -1.145097
v -1.993383 0.364524 -1.127317
v 1.830905 0.364524 -1.124946
v -1.993395 0.350131 -1.107844
v -1.993408 0.337431 -1.086677
v 1.830880 0.337431 -1.084306
v -1.993422 0.326424 -1.063816
v -1.993437 0.317111 -1.039263
v 1.830851 0.317111 -1.036892
v -1.993454 0.309490 -1.013016
v -1.993471 0.303564 -0.985075
v 1.830817 0.303564 -0.982705
v -1.993489 0.299330 -0.955442
v -1.993509 0.296790 -0.924115
v 1.830779 0.296790 -0.921744
v -1.993290 0.551774 -1.277104
v -1.993292 0.520447 -1.274564
v -1.993294 0.490813 -1.270331
v -1.993298 0.462873 -1.264404
v -1.993303 0.436626 -1.256784
v -1.993308 0.412072 -1.247471
v -1.993315 0.389212 -1.236464
v -1.993323 0.368045 -1.223764
v -1.993332 0.348571 -1.209371
v -1.993342 0.330791 -1.193284
v -1.993353 0.314704 -1.175504
v -1.993365 0.300311 -1.156030
v -1.993378 0.287611 -1.134864
v -1.993392 0.276604 -1.112003
v -1.993408 0.267290 -1.087450
v -1.993424 0.259670 -1.061203
v -1.993441 0.253743 -1.033262
v -1.993460 0.249510 -1.003629
v -1.993479 0.246970 -0.972302
vt 0.500000 1.000000
vt 0.500000 0.141224
vt 1.000000 0.141224
vt 0.000000 1.000000
vt 0.000000 0.000000
vt 1.000000 0.000000
vt 1.000000 1.000000
vt 0.144120 1.000000
vt 0.858776 0.000000
vt 0.855880 1.000000
vt 0.500000 0.000000
vt 0.000000 0.141224
vt 0.500000 0.144120
vt 0.000000 0.144120
vt 0.000000 0.130068
vt 0.000000 0.116737
vt 0.000000 0.104127
vt 0.000000 0.092237
vt 0.000000 0.081068
vt 0.000000 0.070619
vt 0.000000 0.060891
vt 0.000000 0.051883
vt 0.000000 0.043596
vt 0.000000 0.036030
vt 0.000000 0.029184
vt 0.000000 0.023059
vt 0.000000 0.017655
vt 0.000000 0.012971
vt 0.000000 0.009008
vt 0.000000 0.005765
vt 0.000000 0.003243
vt 0.000000 0.001441
vt 0.000000 0.000360
vt 0.500000 0.116737
vt 0.500000 0.092237
vt 0.500000 0.070619
vt 0.500000 0.051883
vt 0.500000 0.036030
vt 0.500000 0.023059
vt 0.500000 0.012971
vt 0.500000 0.005765
vt 0.500000 0.001441
vt 0.499999 -3.491728
vt 0.999999 -3.491728
vt 0.999999 -3.310080
vt 0.500000 0.079851
vt 1.000000 0.079851
vt 1.000000 0.083065
vt -6.843832 7.457953
vt -7.211619 7.797846
vt -7.197314 6.797846
vt 8.197330 6.797836
vt 8.211636 7.797837
vt 7.843848 7.457945
vt 0.000000 0.076442
vt 0.500000 0.076442
vt 0.500000 0.079681
vt 0.499999 -3.310080
vt 0.999999 -3.128432
vt 0.499999 -3.128432
vt 0.999999 -2.946785
vt 0.499999 -2.946785
vt 0.999999 -2.765137
vt 0.499999 -2.765137
vt 0.999999 -2.583490
vt 0.499999 -2.583490
vt 0.999999 -2.401842
vt 0.499999 -2.401842
vt 1.000000 -2.220194
vt 0.500000 -2.220194
vt 1.000000 -2.038547
vt 0.500000 -2.038547
vt 1.000000 -1.856899
vt 0.500000 -1.856899
vt 1.000000 -1.675252
vt 0.500000 -1.675252
vt 1.000000 -1.493604
vt 0.500000 -1.493604
vt 1.000000 -1.311957
vt 0.500000 -1.311957
vt 1.000000 -1.130309
vt 0.500000 -1.130309
vt 1.000000 -0.948662
vt 0.500000 -0.948662
vt 1.000000 -0.767014
vt 0.500000 -0.767014
vt 1.000000 -0.585366
vt 0.500000 -0.585366
vt 1.000000 -0.403719
vt 0.500000 -0.403719
vt 1.000000 -0.222071
vt 0.500000 -0.222071
vt 1.000000 -0.040424
vt 0.500000 -0.040423
vt 0.500000 0.083065
vt 1.000000 0.086278
vt 0.500000 0.086278
vt 1.000000 0.089491
vt 0.500000 0.089491
vt 1.000000 0.092705
vt 0.500000 0.092705
vt 1.000000 0.095918
vt 0.500000 0.095918
vt 1.000000 0.099132
vt 0.500000 0.099132
vt 1.000000 0.102345
vt 0.500000 0.102345
vt 1.000000 0.105559
vt 0.500000 0.105559
vt 1.000000 0.108772
vt 0.500000 0.108772
vt 1.000000 0.111986
vt 0.500000 0.111986
vt 1.000000 0.115199
vt 0.500000 0.115199
vt 1.000000 0.118412
vt 0.500000 0.118412
vt 1.000000 0.121626
vt 0.500000 0.121626
vt 1.000000 0.124839
vt 0.500000 0.124839
vt 1.000000 0.128053
vt 0.500000 0.128053
vt 1.000000 0.131266
vt 0.500000 0.131266
vt 1.000000 0.134480
vt 0.500000 0.134480
vt 1.000000 0.137693
vt 0.500000 0.137693
vt 1.000000 0.140907
vt 0.500000 0.140907
vt 1.000000 0.144120
vt -6.476045 7.118061
vt -6.830387 6.457953
vt -6.108258 6.778169
vt -6.463460 6.118061
vt -5.740471 6.438277
vt -6.096533 5.778169
vt -5.372684 6.098384
vt -5.729606 5.438277
vt -5.004898 5.758492
vt -5.362679 5.098384
vt -4.637110 5.418600
vt -4.995752 4.758492
vt -4.269323 5.078708
vt -4.628825 4.418600
vt -3.901536 4.738815
vt -4.261899 4.078708
vt -3.533749 4.398923
vt -3.894972 3.738815
vt -3.528045 3.398923
vt -3.161118 3.059031
vt -3.165962 4.059031
vt -2.794191 2.719138
vt -2.798176 3.719138
vt -2.427264 2.379246
vt -2.430389 3.379246
vt -2.060337 2.039354
vt -2.062602 3.039354
vt -1.693410 1.699461
vt -1.694815 2.699461
vt -1.326483 1.359569
vt -1.327028 2.359569
vt -0.959556 1.019677
vt -0.959241 2.019677
vt -0.592630 0.679785
vt -0.591454 1.679785
vt -0.225703 0.339892
vt -0.223667 1.339892
vt 0.141224 0.000000
vt 7.830402 6.457944
vt 7.476060 7.118053
vt 7.463474 6.118052
vt 7.108273 6.778162
vt 7.096547 5.778161
vt 6.740485 6.438270
vt 6.729619 5.438269
vt 6.372697 6.098378
vt 6.362691 5.098377
vt 6.004909 5.758486
vt 5.995763 4.758485
vt 5.637121 5.418594
vt 5.628836 4.418593
vt 5.269333 5.078702
vt 5.261909 4.078702
vt 4.901546 4.738811
vt 4.894980 3.738810
vt 4.533758 4.398919
vt 4.161125 3.059026
vt 4.528053 3.398918
vt 3.794198 2.719135
vt 4.165970 4.059027
vt 3.427270 2.379243
vt 3.798182 3.719135
vt 3.060342 2.039351
vt 3.430395 3.379243
vt 2.693414 1.699459
vt 3.062607 3.039351
vt 2.326487 1.359567
vt 2.694819 2.699459
vt 1.959559 1.019675
vt 2.327031 2.359567
vt 1.592631 0.679784
vt 1.959243 2.019675
vt 1.225704 0.339892
vt 1.591456 1.679784
vt 1.223668 1.339892
vt 0.000000 0.079681
vt 0.500000 0.082920
vt 0.000000 0.082920
vt 0.500000 0.086159
vt 0.000000 0.086159
vt 0.500000 0.089398
vt 0.000000 0.089398
vt 0.500000 0.092638
vt 0.000000 0.092638
vt 0.000000 0.095877
vt 0.000000 0.099116
vt 0.500000 0.102355
vt 0.000000 0.102355
vt 0.000000 0.105594
vt 0.000000 0.108833
vt 0.500000 0.112072
vt 0.000000 0.112072
vt 0.500000 0.115311
vt 0.000000 0.115311
vt 0.500000 0.118550
vt 0.000000 0.118550
vt 0.500000 0.121789
vt 0.000000 0.121789
vt 0.500000 0.125029
vt 0.000000 0.125029
vt 0.500000 0.128268
vt 0.000000 0.128268
vt 0.500000 0.131507
vt 0.000000 0.131507
vt 0.500000 0.134746
vt 0.000000 0.134746
vt 0.500000 0.137985
vt 0.000000 0.137985
vt 0.500000 0.130068
vt 0.500000 0.104127
vt 0.500000 0.081068
vt 0.500000 0.060891
vt 0.500000 0.043596
vt 0.500000 0.029184
vt 0.500000 0.017655
vt 0.500000 0.009008
vt 0.500000 0.003243
vt 0.500000 0.000360
vn -0.000000 -1.000000 0.000000
vn 0.000000 -0.999900 -0.012800
vn 0.000000 1.000000 -0.000000
vn -1.000000 0.000000 -0.000600
vn -0.000600 -0.000000 1.000000
vn 1.000000 0.000000 0.000600
vn 1.000000 -0.000100 0.000600
vn 0.000600 0.000000 -1.000000
vn 0.000600 -0.012800 -0.999900
vn -0.000600 0.012800 0.999900
vn -0.000000 0.999900 0.012800
vn 1.000000 -0.000400 0.000600
vn 1.000000 0.000100 0.000600
vn 1.000000 0.000100 0.000700
vn 1.000000 0.000000 0.000800
vn 1.000000 -0.000000 0.000400
vn -1.000000 0.000000 -0.000700
vn 0.000600 -0.053200 -0.998600
vn -0.000600 0.053200 0.998600
vn 0.000600 -0.111200 -0.993800
vn 0.000600 -0.174500 -0.984600
vn 0.000600 -0.174600 -0.984600
vn 0.000600 -0.243300 -0.969900
vn 0.000600 -0.317000 -0.948400
vn 0.000600 -0.394600 -0.918900
vn 0.000500 -0.474700 -0.880200
vn 0.000500 -0.555100 -0.831800
vn 0.000500 -0.633400 -0.773800
vn 0.000400 -0.707100 -0.707100
vn 0.000400 -0.773800 -0.633400
vn 0.000300 -0.831800 -0.555100
vn 0.000300 -0.880200 -0.474700
vn 0.000200 -0.918800 -0.394600
vn 0.000200 -0.948400 -0.317000
vn 0.000200 -0.969900 -0.243300
vn 0.000100 -0.984600 -0.174600
vn 0.000100 -0.993800 -0.111200
vn 0.000000 -0.998600 -0.053200
vn -0.000600 0.111200 0.993800
vn -0.000600 0.174600 0.984600
vn -0.000600 0.243300 0.969900
vn -0.000600 0.317000 0.948400
vn -0.000600 0.394600 0.918900
vn -0.000500 0.474700 0.880200
vn -0.000500 0.555100 0.831800
vn -0.000500 0.633400 0.773800
vn -0.000400 0.707100 0.707100
vn -0.000400 0.773800 0.633400
vn -0.000300 0.831800 0.555100
vn -0.000300 0.880200 0.474600
vn -0.000200 0.918900 0.394600
vn -0.000200 0.948400 0.317000
vn -0.000200 0.969900 0.243300
vn -0.000100 0.984600 0.174600
vn -0.000100 0.993800 0.111200
vn -0.000000 0.998600 0.053200
vn -1.000000 0.000300 -0.000600
vn -1.000000 -0.000300 -0.000800
vn -1.000000 -0.000300 -0.000600
vn -1.000000 0.000000 -0.000900
vn -1.000000 0.000100 -0.000600
usemtl wire_213154229
s 1
f 1/1/1 2/2/2 3/3/2
f 4/1/3 5/4/3 6/5/3
f 7/1/3 6/4/3 8/5/3
f 9/6/4 10/7/4 11/8/4
f 12/1/5 10/4/5 9/5/5
f 13/5/6 3/9/6 14/10/7
f 15/11/8 8/5/8 16/5/9
f 17/7/4 18/7/4 19/6/4
f 7/1/5 18/7/5 17/7/10
f 20/4/6 16/5/6 8/5/6
f 21/12/2 2/2/2 1/1/1
f 10/7/3 12/1/3 22/13/11
f 18/7/3 7/1/3 15/11/3
f 23/7/5 12/1/5 1/11/5
f 19/6/8 15/11/8 24/11/9
f 14/14/7 25/15/12 26/16/13
f 26/16/13 27/17/7 28/18/6
f 28/18/6 29/19/14 30/20/6
f 30/20/6 31/21/7 32/22/6
f 32/22/6 33/23/7 34/24/6
f 34/24/6 35/25/6 36/26/6
f 36/26/6 37/27/6 38/28/6
f 38/28/6 39/29/15 40/30/6
f 40/30/6 41/31/6 42/32/6
f 42/32/6 43/33/16 20/5/6
f 20/5/6 6/5/6 5/4/6
f 22/13/4 12/1/4 4/1/4
f 22/13/4 7/11/4 44/34/4
f 44/34/4 7/11/4 45/35/4
f 45/35/4 7/11/4 46/36/4
f 46/36/4 7/11/4 47/37/4
f 47/37/4 7/11/4 48/38/4
f 48/38/4 7/11/4 49/39/4
f 49/39/4 7/11/4 50/40/4
f 50/40/4 7/11/4 51/41/4
f 51/41/4 7/11/4 52/42/17
f 52/42/17 7/11/4 53/11/4
f 23/4/5 5/4/5 4/1/5
f 24/43/9 16/44/9 54/45/18
f 53/46/10 17/47/10 55/48/19
f 55/49/4 17/50/4 56/51/4
f 16/52/6 20/53/6 43/54/16
f 56/55/9 24/56/9 57/57/18
f 57/58/18 54/45/18 58/59/20
f 59/60/20 58/59/20 60/61/21
f 61/62/22 60/61/21 62/63/23
f 63/64/23 62/63/23 64/65/24
f 65/66/24 64/65/24 66/67/25
f 67/68/25 66/67/25 68/69/26
f 69/70/26 68/69/26 70/71/27
f 71/72/27 70/71/27 72/73/28
f 73/74/28 72/73/28 74/75/29
f 75/76/29 74/75/29 76/77/30
f 77/78/30 76/77/30 78/79/31
f 79/80/31 78/79/31 80/81/32
f 81/82/32 80/81/32 82/83/33
f 83/84/33 82/83/33 84/85/34
f 85/86/34 84/85/34 86/87/35
f 87/88/35 86/87/35 88/89/36
f 89/90/36 88/89/36 90/91/37
f 91/92/37 90/91/37 92/93/38
f 93/94/38 92/93/38 3/3/2
f 94/95/19 55/48/19 95/96/39
f 52/97/39 95/96/39 96/98/40
f 97/99/40 96/98/40 98/100/41
f 51/101/41 98/100/41 99/102/42
f 100/103/42 99/102/42 101/104/43
f 50/105/43 101/104/43 102/106/44
f 103/107/44 102/106/44 104/108/45
f 49/109/45 104/108/45 105/110/46
f 106/111/46 105/110/46 107/112/47
f 48/113/47 107/112/47 108/114/48
f 109/115/48 108/114/48 110/116/49
f 47/117/49 110/116/49 111/118/50
f 112/119/50 111/118/50 113/120/51
f 46/121/51 113/120/51 114/122/52
f 115/123/52 114/122/52 116/124/53
f 45/125/53 116/124/53 117/126/54
f 118/127/54 117/126/54 119/128/55
f 44/129/55 119/128/55 120/130/56
f 121/131/56 120/130/56 11/132/11
f 95/133/4 55/49/4 122/134/4
f 96/135/4 95/133/4 123/136/4
f 98/137/4 96/135/4 124/138/4
f 99/139/4 98/137/4 125/140/4
f 101/141/4 99/139/4 126/142/4
f 102/143/4 101/141/4 127/144/4
f 104/145/4 102/143/4 128/146/4
f 105/147/4 104/145/4 129/148/4
f 107/149/4 105/147/4 130/150/4
f 107/149/4 131/151/4 132/152/4
f 108/153/4 132/152/4 133/154/4
f 110/155/4 133/154/4 134/156/4
f 111/157/4 134/156/4 135/158/4
f 113/159/4 135/158/4 136/160/4
f 114/161/4 136/160/4 137/162/4
f 116/163/4 137/162/4 138/164/4
f 117/165/4 138/164/4 139/166/4
f 119/167/4 139/166/4 140/168/4
f 120/169/4 140/168/4 21/170/4
f 54/171/6 43/54/16 42/172/6
f 58/173/6 42/172/6 41/174/6
f 60/175/6 41/174/6 40/176/6
f 62/177/6 40/176/6 39/178/15
f 64/179/6 39/178/15 38/180/6
f 66/181/6 38/180/6 37/182/6
f 68/183/6 37/182/6 36/184/6
f 70/185/6 36/184/6 35/186/6
f 72/187/6 35/186/6 34/188/6
f 76/189/6 74/190/6 34/188/6
f 78/191/6 76/189/6 33/192/7
f 80/193/6 78/191/6 32/194/6
f 82/195/6 80/193/6 31/196/7
f 84/197/6 82/195/6 30/198/6
f 86/199/6 84/197/6 29/200/14
f 88/201/6 86/199/6 28/202/6
f 90/203/6 88/201/6 27/204/7
f 92/205/6 90/203/6 26/206/13
f 3/9/6 92/205/6 25/207/12
f 122/208/18 57/57/18 59/209/20
f 123/210/20 59/209/20 61/211/22
f 124/212/22 61/211/22 63/213/23
f 125/214/23 63/213/23 65/215/24
f 126/216/24 65/215/24 67/103/25
f 127/217/25 67/103/25 69/105/26
f 128/218/26 69/105/26 71/219/27
f 129/220/27 71/219/27 73/109/28
f 130/221/28 73/109/28 75/111/29
f 131/222/29 75/111/29 77/223/30
f 132/224/30 77/223/30 79/225/31
f 133/226/31 79/225/31 81/227/32
f 134/228/32 81/227/32 83/229/33
f 135/230/33 83/229/33 85/231/34
f 136/232/34 85/231/34 87/233/35
f 137/234/35 87/233/35 89/235/36
f 138/236/36 89/235/36 91/237/37
f 139/238/37 91/237/37 93/239/38
f 140/240/38 93/239/38 2/2/2
f 13/7/1 1/1/1 3/3/2
f 7/11/3 4/1/3 6/5/3
f 15/11/3 7/1/3 8/5/3
f 21/170/4 9/6/4 11/8/4
f 1/11/5 12/1/5 9/5/5
f 23/4/6 13/5/6 14/10/7
f 24/11/9 15/11/8 16/5/9
f 56/6/4 17/7/4 19/6/4
f 53/1/10 7/1/5 17/7/10
f 6/4/6 20/4/6 8/5/6
f 9/4/1 21/12/2 1/1/1
f 11/132/11 10/7/3 22/13/11
f 19/6/3 18/7/3 15/11/3
f 13/6/5 23/7/5 1/11/5
f 56/6/9 19/6/8 24/11/9
f 23/4/6 14/14/7 26/16/13
f 23/4/6 26/16/13 28/18/6
f 23/4/6 28/18/6 30/20/6
f 23/4/6 30/20/6 32/22/6
f 23/4/6 32/22/6 34/24/6
f 23/4/6 34/24/6 36/26/6
f 23/4/6 36/26/6 38/28/6
f 23/4/6 38/28/6 40/30/6
f 23/4/6 40/30/6 42/32/6
f 23/4/6 42/32/6 20/5/6
f 23/4/6 20/5/6 5/4/6
f 7/11/4 22/13/4 4/1/4
f 121/241/57 22/13/4 44/34/4
f 118/242/57 44/34/4 45/35/4
f 115/243/58 45/35/4 46/36/4
f 112/244/59 46/36/4 47/37/4
f 109/245/59 47/37/4 48/38/4
f 106/246/60 48/38/4 49/39/4
f 103/247/61 49/39/4 50/40/4
f 100/248/17 50/40/4 51/41/4
f 97/249/4 51/41/4 52/42/17
f 94/250/4 52/42/17 53/11/4
f 12/1/5 23/4/5 4/1/5
f 57/58/18 24/43/9 54/45/18
f 94/95/19 53/46/10 55/48/19
f 122/134/4 55/49/4 56/51/4
f 54/171/6 16/52/6 43/54/16
f 122/208/18 56/55/9 57/57/18
f 59/60/20 57/58/18 58/59/20
f 61/62/22 59/60/20 60/61/21
f 63/64/23 61/62/22 62/63/23
f 65/66/24 63/64/23 64/65/24
f 67/68/25 65/66/24 66/67/25
f 69/70/26 67/68/25 68/69/26
f 71/72/27 69/70/26 70/71/27
f 73/74/28 71/72/27 72/73/28
f 75/76/29 73/74/28 74/75/29
f 77/78/30 75/76/29 76/77/30
f 79/80/31 77/78/30 78/79/31
f 81/82/32 79/80/31 80/81/32
f 83/84/33 81/82/32 82/83/33
f 85/86/34 83/84/33 84/85/34
f 87/88/35 85/86/34 86/87/35
f 89/90/36 87/88/35 88/89/36
f 91/92/37 89/90/36 90/91/37
f 93/94/38 91/92/37 92/93/38
f 2/2/2 93/94/38 3/3/2
f 52/97/39 94/95/19 95/96/39
f 97/99/40 52/97/39 96/98/40
f 51/101/41 97/99/40 98/100/41
f 100/103/42 51/101/41 99/102/42
f 50/105/43 100/103/42 101/104/43
f 103/107/44 50/105/43 102/106/44
f 49/109/45 103/107/44 104/108/45
f 106/111/46 49/109/45 105/110/46
f 48/113/47 106/111/46 107/112/47
f 109/115/48 48/113/47 108/114/48
f 47/117/49 109/115/48 110/116/49
f 112/119/50 47/117/49 111/118/50
f 46/121/51 112/119/50 113/120/51
f 115/123/52 46/121/51 114/122/52
f 45/125/53 115/123/52 116/124/53
f 118/127/54 45/125/53 117/126/54
f 44/129/55 118/127/54 119/128/55
f 121/131/56 44/129/55 120/130/56
f 22/13/11 121/131/56 11/132/11
f 123/136/4 95/133/4 122/134/4
f 124/138/4 96/135/4 123/136/4
f 125/140/4 98/137/4 124/138/4
f 126/142/4 99/139/4 125/140/4
f 127/144/4 101/141/4 126/142/4
f 128/146/4 102/143/4 127/144/4
f 129/148/4 104/145/4 128/146/4
f 130/150/4 105/147/4 129/148/4
f 131/151/4 107/149/4 130/150/4
f 108/153/4 107/149/4 132/152/4
f 110/155/4 108/153/4 133/154/4
f 111/157/4 110/155/4 134/156/4
f 113/159/4 111/157/4 135/158/4
f 114/161/4 113/159/4 136/160/4
f 116/163/4 114/161/4 137/162/4
f 117/165/4 116/163/4 138/164/4
f 119/167/4 117/165/4 139/166/4
f 120/169/4 119/167/4 140/168/4
f 11/8/4 120/169/4 21/170/4
f 58/173/6 54/171/6 42/172/6
f 60/175/6 58/173/6 41/174/6
f 62/177/6 60/175/6 40/176/6
f 64/179/6 62/177/6 39/178/15
f 66/181/6 64/179/6 38/180/6
f 68/183/6 66/181/6 37/182/6
f 70/185/6 68/183/6 36/184/6
f 72/187/6 70/185/6 35/186/6
f 74/190/6 72/187/6 34/188/6
f 33/192/7 76/189/6 34/188/6
f 32/194/6 78/191/6 33/192/7
f 31/196/7 80/193/6 32/194/6
f 30/198/6 82/195/6 31/196/7
f 29/200/14 84/197/6 30/198/6
f 28/202/6 86/199/6 29/200/14
f 27/204/7 88/201/6 28/202/6
f 26/206/13 90/203/6 27/204/7
f 25/207/12 92/205/6 26/206/13
f 14/10/7 3/9/6 25/207/12
f 123/210/20 122/208/18 59/209/20
f 124/212/22 123/210/20 61/211/22
f 125/214/23 124/212/22 63/213/23
f 126/216/24 125/214/23 65/215/24
f 127/217/25 126/216/24 67/103/25
f 128/218/26 127/217/25 69/105/26
f 129/220/27 128/218/26 71/219/27
f 130/221/28 129/220/27 73/109/28
f 131/222/29 130/221/28 75/111/29
f 132/224/30 131/222/29 77/223/30
f 133/226/31 132/224/30 79/225/31
f 134/228/32 133/226/31 81/227/32
f 135/230/33 134/228/32 83/229/33
f 136/232/34 135/230/33 85/231/34
f 137/234/35 136/232/34 87/233/35
f 138/236/36 137/234/35 89/235/36
f 139/238/37 138/236/36 91/237/37
f 140/240/38 139/238/37 93/239/38
f 21/12/2 140/240/38 2/2/2
