# Blender v2.76 (sub 0) OBJ File: ''
# www.blender.org
mtllib OBJ_Wall_Bunker.mtl
o Box047.001
v 20.648996 13.702288 2.825870
v 20.579950 13.702288 2.825870
v 20.579950 2.352499 2.829314
v 20.648996 2.352499 2.829314
v 2.585801 13.702288 2.825870
v 2.585801 2.352598 2.829314
v -2.417072 13.702288 2.825870
v -2.537924 13.702288 2.825870
v -2.537924 2.352598 2.829314
v -2.417072 2.352598 2.829314
v -2.537924 13.702288 2.714868
v -2.537924 2.352598 2.718313
v -2.537924 13.702288 -0.305825
v -2.537924 2.352501 -0.305829
v -2.537924 13.702293 -18.422207
v -2.537924 13.702293 -18.551725
v -2.537924 2.352507 -18.551729
v -2.537924 2.352507 -18.422211
v -2.417072 13.702293 -18.551725
v -2.417072 2.352507 -18.551729
v 1.447119 13.702293 -18.551725
v 1.447119 2.352507 -18.551729
v 20.579950 13.702293 -18.551725
v 20.648996 13.702293 -18.551725
v 20.648996 2.352507 -18.551729
v 20.579950 2.352507 -18.551729
v 20.648996 13.702293 -18.422207
v 20.648996 2.352507 -18.422211
v 20.648996 13.702288 -1.877878
v 20.648996 2.352501 -1.877882
v 20.648996 13.702288 2.714868
v 20.648996 2.352499 2.718313
v 2.585801 13.702293 -18.422207
v 2.585801 2.352605 -18.422211
v 20.579950 2.352507 -18.422211
v 20.579950 13.702293 -18.422207
v -2.417072 13.702288 -1.877878
v -2.417072 2.352501 -1.877882
v -2.417072 2.352507 -18.422211
v -2.417072 13.702293 -18.422207
v 1.447119 13.702288 2.714868
v 1.447217 2.352598 2.718410
v -2.417072 2.352598 2.718313
v -2.417072 13.702288 2.714868
v 20.579950 13.702288 -0.305825
v 20.579950 2.352501 -0.305829
v 20.579950 2.352499 2.718313
v 20.579950 13.702288 2.714868
v 20.579950 -0.012129 1.986899
v 20.648996 -0.012129 1.986899
v 20.648996 -0.012129 1.875996
v 20.648996 -0.012128 -0.305830
v 20.648996 2.352501 -0.305829
v 20.648996 -0.012123 -18.422211
v 20.648996 -0.012122 -18.551729
v 20.579950 -0.012122 -18.551729
v 2.585801 -0.012122 -18.551729
v 2.585801 2.352605 -18.551729
v -2.417072 -0.012122 -18.551729
v -2.537924 -0.012122 -18.551729
v -2.537924 -0.012123 -18.422211
v -2.537924 -0.012128 -1.877882
v -2.537924 2.352600 -1.877882
v 1.447119 -0.012123 -18.422211
v 1.447119 2.352507 -18.422211
v -2.417072 -0.012123 -18.422211
v 20.579950 -0.012128 -1.877882
v 20.579950 2.352501 -1.877882
v 20.579950 -0.012123 -18.422211
v 2.585801 -0.012129 1.875996
v 2.585801 2.352598 2.718313
v 20.579950 -0.012129 1.875996
v 1.447217 2.352598 2.829314
v 1.447217 13.702288 2.825870
v 2.585801 13.702293 -18.551725
v 1.447119 13.702293 -18.422207
v 2.585801 13.702288 2.714868
v 1.447119 -0.012122 -18.551729
v 2.585801 -0.012123 -18.422211
v -2.537924 13.702288 -1.877878
v 20.648996 13.702288 -0.305825
v -2.417072 2.352501 -0.305829
v -2.417072 13.702288 -0.305825
v 20.579950 13.702288 -1.877878
v 20.648996 -0.012128 -1.877882
v 20.579950 -0.012128 -0.305830
v -2.417072 -0.012128 -1.877882
v 2.585801 -0.012129 1.986899
v -2.417072 -0.135737 -1.877882
v 1.447119 -0.135737 -1.877882
v 1.447119 -0.012128 -1.877882
v 2.585801 -0.135737 -1.877882
v 2.585801 -0.012128 -1.877882
v 2.585801 -0.135738 1.875996
v 2.585801 -0.135640 1.986899
v 2.585801 -0.135738 -0.305830
v 2.585801 -0.012128 -0.305830
v -2.537924 -0.135737 -1.877882
v 1.447119 13.702288 -1.877878
v 2.585801 14.758635 -18.422207
v 2.585801 14.758629 -1.877878
v 20.579950 14.758629 -1.877878
v 20.579950 14.758635 -18.422207
v 2.585801 14.758629 2.825871
v 20.579950 14.758629 2.825871
v -2.537924 14.758629 -0.305825
v -2.537924 14.758629 2.714868
v 1.447119 14.758635 -18.551725
v -2.417072 14.758635 -18.551725
v 20.648996 14.758629 -1.877878
v 20.648996 14.758635 -18.422207
v 2.585801 14.758635 -18.551725
v 20.579950 14.758635 -18.551725
v 1.447217 14.758629 2.825871
v 1.447119 14.758629 2.714868
v -2.417072 14.758629 2.714868
v -2.417072 14.758629 2.825871
v -2.537924 14.758635 -18.551725
v -2.537924 14.758635 -18.422207
v -2.537924 14.758629 2.825871
v 20.648996 14.758629 2.825871
v 20.648996 14.758629 2.714868
v 20.648996 14.758635 -18.551725
v -2.537924 14.758629 -1.877878
v -2.417072 14.758629 -1.877878
v -2.417072 14.758635 -18.422207
v 20.648996 14.758629 -0.305825
v 20.579950 14.758629 -0.305825
v 20.579950 14.758629 2.714868
v 1.447119 -0.135732 -18.422211
v -2.417072 -0.135732 -18.422211
v 20.648996 -0.135738 -0.305830
v 20.648996 -0.135738 1.875996
v 2.585801 -0.135732 -18.551729
v 20.579950 -0.135732 -18.551729
v -2.537924 -0.135732 -18.422211
v 1.447119 -0.135732 -18.551729
v -2.417072 -0.135732 -18.551729
v 20.579950 -0.135738 1.875996
v 20.579950 -0.135738 1.986899
v 20.648996 -0.135732 -18.551729
v 20.648996 -0.135732 -18.422211
v 20.648996 -0.135738 1.986899
v -2.537924 -0.135732 -18.551729
v 20.648996 -0.135737 -1.877882
v 20.579950 -0.135737 -1.877882
v 20.579950 -0.135732 -18.422211
v 2.585801 13.702288 -1.877878
v 1.447119 14.758629 -1.877878
v 1.447119 14.758635 -18.422207
v 2.585801 14.758629 2.714868
v 2.585801 -0.135732 -18.422211
v 1.447119 13.702288 -0.305825
v 2.585801 14.758629 -0.305825
v 1.447119 14.758629 -0.305825
v -2.417072 14.758629 -0.305825
v 20.579950 -0.135738 -0.305830
v 2.585801 13.702288 -0.305825
vt 1.000000 0.000000
vt 0.963200 0.000000
vt 0.270900 0.000000
vt 0.036800 0.000000
vt 0.000000 0.000000
vt 0.000000 0.024700
vt 0.000000 0.110300
vt 0.000000 0.975300
vt 0.000000 1.000000
vt 0.036800 1.000000
vt 0.226700 1.000000
vt 0.963200 1.000000
vt 1.000000 1.000000
vt 1.000000 0.975300
vt 1.000000 0.897400
vt 1.000000 0.024700
vt 0.270900 0.975300
vt 0.963200 0.975300
vt 0.036800 0.897400
vt 0.036800 0.975300
vt 0.226700 0.024700
vt 0.036800 0.024700
vt 0.963200 0.110300
vt 0.963200 0.024700
vt 0.729100 1.000000
vt 0.773300 0.975300
vt 0.729100 0.024700
vt 0.226700 0.000000
vt 0.270900 1.000000
vt 0.226700 0.975300
vt 0.270900 0.024700
vt 0.773300 1.000000
vt 0.729100 0.975300
vt 0.000000 0.897400
vt 1.000000 0.110300
vt 0.036800 0.110300
vt 0.963200 0.897400
vt 0.729100 0.000000
vt 0.226700 0.897400
vt 0.270900 0.897400
vt 0.270900 0.110300
vt 0.729100 0.897400
vt 0.110300 1.000000
vt 0.110300 0.000000
vt 0.024700 0.000000
vt 0.024700 1.000000
vt 0.102600 1.000000
vt 0.102600 0.000000
vt 0.773300 0.000000
vt 0.773300 0.024700
vt 0.975300 0.000000
vt 0.975300 1.000000
vt 0.773300 0.897400
vt 0.226700 0.110300
vt 0.729100 0.110300
vt 0.773300 0.110300
vt 0.897400 1.000000
vt 0.897400 0.000000
vt 0.889700 0.000000
vt 0.889700 1.000000
vn 0.000000 0.000300 1.000000
vn -1.000000 0.000000 0.000000
vn 0.000000 0.000000 -1.000000
vn 1.000000 0.000000 0.000000
vn 0.000000 -0.000000 1.000000
vn -0.000000 -0.163300 0.986600
vn 0.000100 -0.163300 0.986600
vn 0.000000 0.163300 -0.986600
vn -0.000000 -0.000300 -1.000000
vn 0.000000 -1.000000 0.000000
vn -0.000400 -1.000000 -0.000000
vn 0.000000 1.000000 0.000000
vn -0.000000 -1.000000 0.000400
vn -0.000000 -1.000000 0.000200
vn -0.000000 -1.000000 0.000100
usemtl wire_176026026.001
s off
f 1/1/1 2/2/1 3/2/1 4/1/1
f 5/3/1 6/3/1 3/2/1 2/2/1
f 7/4/1 8/5/1 9/5/1 10/4/1
f 8/5/2 11/6/2 12/6/2 9/5/2
f 13/7/2 14/7/2 12/6/2 11/6/2
f 15/8/2 16/9/2 17/9/2 18/8/2
f 16/9/3 19/10/3 20/10/3 17/9/3
f 21/11/3 22/11/3 20/10/3 19/10/3
f 23/12/3 24/13/3 25/13/3 26/12/3
f 24/13/4 27/14/4 28/14/4 25/13/4
f 29/15/4 30/15/4 28/14/4 27/14/4
f 31/16/4 1/1/4 4/1/4 32/16/4
f 33/17/5 34/17/5 35/18/5 36/18/5
f 37/19/4 38/19/4 39/20/4 40/20/4
f 41/21/3 42/21/3 43/22/3 44/22/3
f 45/23/2 46/23/2 47/24/2 48/24/2
f 49/4/6 50/5/6 4/5/6 3/4/7
f 50/5/4 51/6/4 32/6/4 4/5/4
f 52/7/4 53/7/4 32/6/4 51/6/4
f 54/8/4 55/9/4 25/9/4 28/8/4
f 55/9/3 56/10/3 26/10/3 25/9/3
f 57/25/3 58/25/3 26/10/3 56/10/3
f 59/12/3 60/13/3 17/13/3 20/12/3
f 60/13/2 61/14/2 18/14/2 17/13/2
f 62/15/2 63/15/2 18/14/2 61/14/2
f 64/26/5 65/26/5 39/18/5 66/18/5
f 67/19/2 68/19/2 35/20/2 69/20/2
f 70/27/8 71/27/8 47/22/8 72/22/8
f 7/4/1 10/4/1 73/28/1 74/28/1
f 75/29/3 58/29/3 22/11/3 21/11/3
f 40/20/5 39/20/5 65/30/5 76/30/5
f 77/31/9 71/31/9 42/21/9 41/21/9
f 59/12/3 20/12/3 22/32/3 78/32/3
f 79/33/5 34/33/5 65/26/5 64/26/5
f 80/34/2 63/34/2 14/7/2 13/7/2
f 31/16/4 32/16/4 53/35/4 81/35/4
f 44/22/4 43/22/4 82/36/4 83/36/4
f 84/37/2 68/37/2 46/23/2 45/23/2
f 85/34/4 30/34/4 53/7/4 52/7/4
f 72/22/2 47/22/2 46/36/2 86/36/2
f 73/28/10 10/4/10 43/4/10 42/28/10
f 10/4/10 9/5/10 12/5/10 43/4/10
f 82/36/10 43/22/10 12/22/10 14/36/10
f 81/35/4 53/35/4 30/15/4 29/15/4
f 83/36/4 82/36/4 38/19/4 37/19/4
f 86/36/2 46/36/2 68/19/2 67/19/2
f 15/8/2 18/8/2 63/34/2 80/34/2
f 36/18/2 35/18/2 68/37/2 84/37/2
f 54/8/4 28/8/4 30/34/4 85/34/4
f 66/18/4 39/18/4 38/37/4 87/37/4
f 74/28/1 73/28/1 6/3/1 5/3/1
f 76/30/5 65/30/5 34/17/5 33/17/5
f 78/32/3 22/32/3 58/25/3 57/25/3
f 23/12/3 26/12/3 58/29/3 75/29/3
f 48/24/9 47/24/9 71/31/9 77/31/9
f 49/4/6 3/4/6 6/38/6 88/38/6
f 69/20/5 35/20/5 34/33/5 79/33/5
f 89/19/5 90/39/5 91/39/5 87/19/5
f 90/39/5 92/40/5 93/40/5 91/39/5
f 94/31/2 95/3/2 88/3/2 70/31/2
f 96/41/2 94/31/2 70/31/2 97/41/2
f 92/40/2 96/41/2 97/41/2 93/40/2
f 6/3/10 73/28/10 42/28/10 71/3/10
f 88/38/2 6/38/2 71/38/2 70/38/2
f 38/19/11 82/36/11 14/36/11 63/19/11
f 87/37/5 38/37/5 63/37/5 62/37/5
f 89/19/5 87/19/5 62/19/5 98/19/5
s 1
f 76/30/10 99/39/10 37/19/10 40/20/10
f 100/33/12 101/42/12 102/19/12 103/20/12
f 104/25/5 5/38/5 2/4/5 105/10/5
f 106/43/2 13/44/2 11/45/2 107/46/2
f 108/11/3 21/28/3 19/4/3 109/10/3
f 110/47/4 29/48/4 27/45/4 111/46/4
f 112/25/12 100/33/12 103/20/12 113/10/12
f 114/49/12 115/50/12 116/24/12 117/2/12
f 118/13/2 16/1/2 15/51/2 119/52/2
f 8/5/2 120/9/2 107/46/2 11/45/2
f 121/13/4 1/1/4 31/51/4 122/52/4
f 24/5/4 123/9/4 111/46/4 27/45/4
f 119/14/12 124/15/12 125/37/12 126/18/12
f 122/6/12 127/7/12 128/36/12 129/22/12
f 120/13/5 8/1/5 7/2/5 117/12/5
f 1/5/5 121/9/5 105/10/5 2/4/5
f 123/13/3 24/1/3 23/2/3 113/12/3
f 16/5/3 118/9/3 109/10/3 19/4/3
f 118/13/12 119/14/12 126/18/12 109/12/12
f 111/8/12 123/9/12 113/10/12 103/20/12
f 121/5/12 122/6/12 129/22/12 105/4/12
f 107/16/12 120/1/12 117/2/12 116/24/12
f 79/33/12 93/42/12 67/19/12 69/20/12
f 130/30/10 90/39/10 89/19/10 131/20/10
f 132/43/4 52/44/4 51/45/4 133/46/4
f 134/25/3 57/38/3 56/4/3 135/10/3
f 98/47/2 62/48/2 61/45/2 136/46/2
f 137/11/10 130/30/10 131/20/10 138/10/10
f 95/3/13 94/31/14 139/24/15 140/2/14
f 141/13/4 55/1/4 54/51/4 142/52/4
f 50/5/4 143/9/4 133/46/4 51/45/4
f 60/5/2 144/9/2 136/46/2 61/45/2
f 142/14/10 145/15/10 146/37/10 147/18/10
f 143/13/5 50/1/5 49/2/5 140/12/5
f 144/13/3 60/1/3 59/2/3 138/12/3
f 55/5/3 141/9/3 135/10/3 56/4/3
f 141/13/10 142/14/10 147/18/10 135/12/10
f 136/8/10 144/9/10 138/10/10 131/20/10
f 133/16/10 143/1/10 140/2/14 139/24/15
f 33/17/10 148/40/10 99/39/10 76/30/10
f 126/18/12 125/37/12 149/53/12 150/26/12
f 117/12/5 7/2/5 74/49/5 114/32/5
f 112/29/3 75/3/3 21/28/3 108/11/3
f 109/12/12 126/18/12 150/26/12 108/32/12
f 104/38/12 151/27/12 115/50/12 114/49/12
f 66/18/12 87/37/12 91/53/12 64/26/12
f 152/17/10 92/40/10 90/39/10 130/30/10
f 138/12/3 59/2/3 78/49/3 137/32/3
f 134/29/10 152/17/10 130/30/10 137/11/10
f 41/21/10 44/22/10 83/36/10 153/54/10
f 115/50/12 151/27/12 154/55/12 155/56/12
f 124/57/2 80/58/2 13/44/2 106/43/2
f 122/52/4 31/51/4 81/59/4 127/60/4
f 107/16/12 116/24/12 156/23/12 106/35/12
f 110/34/12 102/19/12 128/36/12 127/7/12
f 145/57/4 85/58/4 52/44/4 132/43/4
f 133/16/10 139/24/15 157/23/10 132/35/10
f 48/24/10 77/31/10 158/41/10 45/23/10
f 116/24/12 115/50/12 155/56/12 156/23/12
f 139/24/15 94/31/14 96/41/10 157/23/10
f 153/54/10 83/36/10 37/19/10 99/39/10
f 155/56/12 154/55/12 101/42/12 149/53/12
f 127/60/4 81/59/4 29/48/4 110/47/4
f 106/35/12 156/23/12 125/37/12 124/15/12
f 132/35/10 157/23/10 146/37/10 145/15/10
f 45/23/10 158/41/10 148/40/10 84/37/10
f 156/23/12 155/56/12 149/53/12 125/37/12
f 157/23/10 96/41/10 92/40/10 146/37/10
f 119/52/2 15/51/2 80/58/2 124/57/2
f 111/8/12 103/20/12 102/19/12 110/34/12
f 142/52/4 54/51/4 85/58/4 145/57/4
f 136/8/10 131/20/10 89/19/10 98/34/10
f 150/26/12 149/53/12 101/42/12 100/33/12
f 114/32/5 74/49/5 5/38/5 104/25/5
f 108/32/12 150/26/12 100/33/12 112/25/12
f 64/26/12 91/53/12 93/42/12 79/33/12
f 137/32/3 78/49/3 57/38/3 134/25/3
f 36/18/10 84/37/10 148/40/10 33/17/10
f 113/12/3 23/2/3 75/3/3 112/29/3
f 105/4/12 129/22/12 151/27/12 104/38/12
f 147/18/10 146/37/10 92/40/10 152/17/10
f 140/12/5 49/2/5 88/3/5 95/29/5
f 135/12/10 147/18/10 152/17/10 134/29/10
f 129/22/12 128/36/12 154/55/12 151/27/12
f 72/22/12 86/36/12 97/55/12 70/27/12
f 41/21/10 153/54/10 158/41/10 77/31/10
f 128/36/12 102/19/12 101/42/12 154/55/12
f 86/36/12 67/19/12 93/42/12 97/55/12
f 153/54/10 99/39/10 148/40/10 158/41/10
