# Blender v2.76 (sub 0) OBJ File: ''
# www.blender.org
mtllib OBJ_wall_Ground.mtl
o Wall_Ground.002
v -1.748945 0.000016 1.867374
v -2.395205 0.000016 1.867374
v -2.306539 -0.019929 1.792844
v -1.684358 -0.019929 1.792844
v -2.395387 0.000016 -0.259229
v -2.306714 -0.019929 -0.254526
v 1.482050 0.000016 -1.884457
v 2.591527 0.000016 -1.884457
v 2.494397 -0.019929 -1.819201
v 1.426257 -0.019929 -1.819201
v -1.748945 0.000016 -1.884457
v 0.107124 0.000016 -1.884457
v 0.102558 -0.019929 -1.819201
v -1.684358 -0.019929 -1.819201
v -2.395387 0.000016 -1.884457
v -2.306714 -0.019929 -1.819201
v 2.591527 0.000016 -0.259229
v 2.591527 0.000016 1.867374
v 2.494397 -0.019929 1.792844
v 2.494397 -0.019929 -0.254526
v 0.107124 0.000016 1.867374
v 0.102558 -0.019929 1.792844
v 1.482050 0.000016 1.867374
v 1.426257 -0.019929 1.792844
v 1.426257 -0.019929 -0.252223
v 0.102558 -0.019929 -0.252223
v -1.684358 -0.019929 -0.252223
v -1.748945 0.000016 -0.259229
v 0.107124 0.000016 -0.259229
v 1.482050 0.000016 -0.259229
vt 0.104543 0.019020
vt 0.020512 0.019020
vt 0.020488 0.295537
vt 0.524661 0.506861
vt 0.668924 0.506861
vt 0.104543 0.506861
vt 0.345883 0.506861
vt 0.020488 0.506861
vt 0.668924 0.295537
vt 0.668924 0.019020
vt 0.345883 0.019020
vt 0.524661 0.019020
vt 0.104543 0.295537
vt 0.345883 0.295537
vt 0.524661 0.295537
vn 0.000000 -0.966000 0.258500
vn -0.219400 -0.975600 0.000000
vn 0.000000 -0.956300 -0.292300
vn 0.201100 -0.979600 -0.000000
vn -0.000000 -1.000000 -0.000000
vn 0.000000 1.000000 0.000000
usemtl MAT_Wall.003
s off
f 1/1/1 2/2/1 3/2/1 4/1/1
f 2/2/2 5/3/2 6/3/2 3/2/2
f 7/4/3 8/5/3 9/5/3 10/4/3
f 11/6/3 12/7/3 13/7/3 14/6/3
f 15/8/3 11/6/3 14/6/3 16/8/3
f 17/9/4 18/10/4 19/10/4 20/9/4
f 21/11/1 1/1/1 4/1/1 22/11/1
f 18/10/1 23/12/1 24/12/1 19/10/1
f 8/5/4 17/9/4 20/9/4 9/5/4
f 12/7/3 7/4/3 10/4/3 13/7/3
f 23/12/1 21/11/1 22/11/1 24/12/1
f 5/3/2 15/8/2 16/8/2 6/3/2
f 10/4/5 9/5/5 20/5/5 25/4/5
f 14/6/5 13/7/5 26/7/5 27/6/5
f 16/8/5 14/6/5 27/6/5 6/8/5
f 13/7/5 10/4/5 25/4/5 26/7/5
f 25/4/5 20/5/5 19/5/5 24/4/5
f 27/6/5 26/7/5 22/7/5 4/6/5
f 6/8/5 27/6/5 4/6/5 3/8/5
f 26/7/5 25/4/5 24/4/5 22/7/5
s 1
f 11/6/6 28/13/6 29/14/6 12/7/6
f 15/8/6 5/3/6 28/13/6 11/6/6
f 17/9/6 30/15/6 23/12/6 18/10/6
f 1/1/6 21/11/6 29/14/6 28/13/6
f 2/2/6 1/1/6 28/13/6 5/3/6
f 8/5/6 7/4/6 30/15/6 17/9/6
f 29/14/6 21/11/6 23/12/6 30/15/6
f 12/7/6 29/14/6 30/15/6 7/4/6
