# Blender v2.76 (sub 0) OBJ File: ''
# www.blender.org
mtllib table1.mtl
o Table_01.001
v -0.305413 0.264423 0.157352
v -0.317858 0.264423 0.156781
v -0.328838 0.264423 0.155092
v -0.346403 0.264423 0.148357
v 0.311851 0.264423 0.157735
v -0.358109 0.264423 0.137135
v -0.363957 0.264423 0.121434
v -0.364682 0.264423 0.111908
v -0.364613 0.264423 0.000788
v 0.371246 0.264423 0.001244
v 0.335279 0.264423 0.155503
v 0.324296 0.264423 0.157179
v 0.352853 0.264423 0.148791
v 0.364573 0.264423 0.137583
v 0.359445 0.264423 0.143747
v 0.370440 0.264423 0.121889
v 0.368237 0.264423 0.130299
v 0.371177 0.264423 0.112364
v -0.364682 0.290474 0.111908
v -0.363957 0.290474 0.121434
v -0.361766 0.290474 0.129846
v -0.352989 0.290474 0.143306
v -0.364613 0.290474 0.000788
v -0.338352 0.290474 0.152284
v -0.317858 0.290474 0.156781
v -0.305413 0.290474 0.157352
v 0.371246 0.290474 0.001244
v 0.371177 0.290474 0.112364
v 0.364573 0.290474 0.137583
v 0.368237 0.290474 0.130299
v 0.370440 0.290474 0.121889
v 0.352853 0.290474 0.148791
v 0.359445 0.290474 0.143747
v 0.335279 0.290474 0.155503
v 0.344797 0.290474 0.152707
v 0.311851 0.290474 0.157735
v 0.312045 0.264423 -0.155327
v -0.305219 0.264423 -0.155710
v -0.305219 0.290474 -0.155710
v -0.364544 0.290474 -0.110332
v -0.364544 0.264423 -0.110332
v -0.361605 0.264423 -0.128274
v -0.352812 0.264423 -0.141724
v -0.338164 0.264423 -0.150684
v -0.317664 0.264423 -0.155156
v 0.335470 0.264423 -0.153068
v 0.353036 0.264423 -0.146327
v 0.364742 0.264423 -0.135112
v 0.370589 0.264423 -0.119410
v 0.371315 0.264423 -0.109876
v 0.371315 0.290474 -0.109876
v 0.370589 0.290474 -0.119410
v 0.368398 0.290474 -0.127821
v 0.359622 0.290474 -0.141282
v 0.344985 0.290474 -0.150261
v 0.324490 0.290474 -0.154758
v 0.312045 0.290474 -0.155327
v -0.328646 0.290474 -0.153480
v -0.346220 0.290474 -0.146760
v -0.357940 0.290474 -0.135560
v -0.361605 0.290474 -0.128274
v -0.363807 0.290474 -0.119866
v 0.153224 0.264423 0.339495
v 0.156564 0.264422 -0.323487
v 0.156163 0.264423 0.321555
v 0.144431 0.264423 0.352943
v 0.129784 0.264423 0.361903
v 0.120265 0.264423 0.364701
v 0.109283 0.264423 0.366375
v 0.096837 0.264423 0.366927
v 0.003546 0.264422 -0.368991
v 0.003089 0.264423 0.366869
v 0.153647 0.264422 -0.341427
v 0.155837 0.264422 -0.333018
v 0.144870 0.264422 -0.354886
v 0.149991 0.264422 -0.348718
v 0.130234 0.264422 -0.363866
v 0.138285 0.264422 -0.359936
v 0.109738 0.264422 -0.368364
v 0.120718 0.264422 -0.366674
v 0.097293 0.264422 -0.368932
v 0.096837 0.290474 0.366927
v 0.109283 0.290474 0.366375
v 0.120265 0.290474 0.364701
v 0.137839 0.290474 0.357983
v 0.003089 0.290474 0.366869
v 0.149559 0.290474 0.346779
v 0.155426 0.290474 0.331085
v 0.156163 0.290474 0.321555
v 0.003546 0.290474 -0.368991
v 0.097293 0.290474 -0.368932
v 0.130234 0.290474 -0.363866
v 0.120718 0.290474 -0.366674
v 0.109738 0.290474 -0.368364
v 0.144870 0.290474 -0.354886
v 0.138285 0.290474 -0.359936
v 0.153647 0.290474 -0.341427
v 0.149991 0.290474 -0.348718
v 0.156564 0.290474 -0.323487
v -0.149528 0.290474 -0.323677
v -0.149528 0.264422 -0.323677
v -0.149928 0.264423 0.321365
v -0.090658 0.290474 0.366811
v -0.090658 0.264423 0.366811
v -0.114083 0.264423 0.364556
v -0.131649 0.264423 0.357816
v -0.143355 0.264423 0.346597
v -0.149202 0.264423 0.330896
v -0.146589 0.264422 -0.341613
v -0.137796 0.264422 -0.355061
v -0.123148 0.264422 -0.364023
v -0.102647 0.264422 -0.368495
v -0.090202 0.264422 -0.369049
v -0.113629 0.290474 -0.366819
v -0.090202 0.290474 -0.369049
v -0.131204 0.290474 -0.360103
v -0.142924 0.290474 -0.348899
v -0.146589 0.290474 -0.341613
v -0.148790 0.290474 -0.333207
v -0.149928 0.290474 0.321365
v -0.149202 0.290474 0.330896
v -0.147011 0.290474 0.339308
v -0.138234 0.290474 0.352768
v -0.123598 0.290474 0.361746
v -0.103103 0.290474 0.366243
v -0.317664 0.290474 -0.155156
v -0.102647 0.290474 -0.368495
v 0.368398 0.264423 -0.127821
v 0.364742 0.290474 -0.135112
v 0.359622 0.264423 -0.141282
v 0.344985 0.264423 -0.150261
v 0.353036 0.290474 -0.146327
v 0.324490 0.264423 -0.154758
v 0.335470 0.290474 -0.153068
v 0.344797 0.264423 0.152707
v 0.324296 0.290474 0.157179
v -0.338164 0.290474 -0.150684
v -0.328646 0.264423 -0.153480
v -0.352812 0.290474 -0.141724
v -0.346220 0.264423 -0.146760
v -0.357940 0.264423 -0.135560
v -0.363807 0.264423 -0.119866
v -0.358109 0.290474 0.137135
v -0.361766 0.264423 0.129846
v -0.346403 0.290474 0.148357
v -0.352989 0.264423 0.143306
v -0.328838 0.290474 0.155092
v -0.338352 0.264423 0.152284
v -0.113629 0.264422 -0.366819
v -0.123148 0.290474 -0.364023
v -0.131204 0.264422 -0.360103
v -0.137796 0.290474 -0.355061
v -0.142924 0.264422 -0.348899
v -0.148790 0.264422 -0.333207
v 0.155837 0.290474 -0.333018
v -0.143355 0.290474 0.346597
v -0.147011 0.264423 0.339308
v -0.131649 0.290474 0.357816
v -0.138234 0.264423 0.352768
v -0.114083 0.290474 0.364556
v -0.123598 0.264423 0.361746
v -0.103103 0.264423 0.366243
v 0.129784 0.290474 0.361903
v 0.144431 0.290474 0.352943
v 0.137839 0.264423 0.357983
v 0.153224 0.290474 0.339495
v 0.149559 0.264423 0.346779
v 0.155426 0.264423 0.331085
v 0.276156 0.007878 0.074142
v -0.269613 0.007878 0.073804
v -0.269522 0.007878 -0.072113
v 0.276156 0.267713 0.074140
v 0.276246 0.267713 -0.071776
v -0.269522 0.267713 -0.072115
v 0.276246 0.007878 -0.071775
v -0.269613 0.267713 0.073801
v 0.083949 0.007878 -0.275998
v 0.083608 0.007878 0.275050
v -0.077315 0.007878 0.274951
v 0.083949 0.270646 -0.276000
v -0.076973 0.270646 -0.276099
v -0.077315 0.270647 0.274949
v -0.076973 0.007878 -0.276098
v 0.083608 0.270647 0.275048
vt 1.000000 0.919416
vt 0.998209 0.936329
vt 0.992837 0.951252
vt 0.971348 0.975128
vt 1.000000 0.080584
vt 0.935533 0.991046
vt 0.885392 0.999005
vt 0.854949 1.000000
vt 0.500000 1.000000
vt 0.500000 0.000000
vt 0.992837 0.048748
vt 0.998209 0.063671
vt 0.971348 0.024872
vt 0.935533 0.008954
vt 0.955231 0.015918
vt 0.885392 0.000995
vt 0.912253 0.003979
vt 0.854949 0.000000
vt 0.145051 1.000000
vt 0.114608 0.999005
vt 0.087747 0.996021
vt 0.044769 0.984082
vt 0.016117 0.964185
vt 0.001791 0.936329
vt 0.000000 0.919416
vt 0.145051 0.000000
vt 0.064467 0.008954
vt 0.087747 0.003979
vt 0.114608 0.000995
vt 0.028652 0.024872
vt 0.044769 0.015918
vt 0.007163 0.048748
vt 0.016117 0.035815
vt 0.000000 0.080584
vt 0.080584 0.000000
vt 0.919416 0.000000
vt 0.919416 1.000000
vt 0.983883 0.035815
vt 0.912253 0.996021
vt 0.990433 0.962670
vt 1.000000 0.061709
vt 1.000000 0.938291
vt 0.961733 0.980954
vt 0.913899 0.993143
vt 0.882807 0.996953
vt 0.846931 0.999238
vt 0.806273 1.000000
vt 0.990433 0.037330
vt 0.997608 0.048758
vt 0.961733 0.019046
vt 0.978475 0.027426
vt 0.913899 0.006857
vt 0.940208 0.012189
vt 0.846931 0.000762
vt 0.882807 0.003047
vt 0.806273 0.000000
vt 0.193728 1.000000
vt 0.153069 0.999238
vt 0.117193 0.996953
vt 0.059792 0.987811
vt 0.021525 0.972574
vt 0.002392 0.951242
vt 0.000000 0.938291
vt 0.193728 0.000000
vt 0.086101 0.006857
vt 0.117193 0.003047
vt 0.153069 0.000762
vt 0.038267 0.019046
vt 0.059792 0.012189
vt 0.009567 0.037330
vt 0.021525 0.027426
vt 0.000000 0.061709
vt 0.061709 1.000000
vt 0.061709 0.000000
vt 0.938291 0.000000
vt 0.997608 0.951242
vt -0.214916 1.000000
vt -0.251853 1.000000
vt -0.251853 -0.000000
vt 1.251853 -0.000000
vt 1.251853 1.000000
vt 1.214916 1.000000
vt -0.081884 1.000000
vt -0.110251 1.000000
vt -0.110251 -0.000000
vt -0.214916 -0.000000
vt -0.468484 1.000000
vt -0.534759 1.000000
vt -0.534759 -0.000000
vt 1.468484 1.000000
vt 1.468484 -0.000000
vt 1.534759 -0.000000
vt -0.081608 -0.000000
vt -0.081608 1.000000
vt -0.116025 1.000000
vt -0.468484 -0.000000
vt -0.177978 -0.000000
vt -0.177978 1.000000
vt -0.141041 1.000000
vt -0.141041 -0.000000
vt -0.104103 -0.000000
vt -0.104103 1.000000
vt -0.067166 -0.000000
vt -0.030228 -0.000000
vt -0.030229 1.000000
vt -0.067166 1.000000
vt 0.006709 -0.000000
vt 0.043646 -0.000000
vt 0.043646 1.000000
vt 0.006709 1.000000
vt 1.177978 1.000000
vt 1.177978 -0.000000
vt 1.141041 1.000000
vt 1.141041 -0.000000
vt 1.104103 -0.000000
vt 1.067166 -0.000000
vt 1.104103 1.000000
vt 1.067166 1.000000
vt 1.030228 1.000000
vt 1.030228 -0.000000
vt 0.993291 1.000000
vt 0.993291 -0.000000
vt 0.956354 -0.000000
vt 0.956354 1.000000
vt -0.053517 1.000000
vt -0.081884 -0.000000
vt -0.025150 1.000000
vt -0.053517 -0.000000
vt 0.003216 1.000000
vt -0.025150 -0.000000
vt 0.031583 1.000000
vt 0.003216 -0.000000
vt 0.059950 1.000000
vt 0.031583 -0.000000
vt 0.088317 1.000000
vt 0.059950 -0.000000
vt 0.116684 1.000000
vt 0.088317 -0.000000
vt 0.116684 -0.000000
vt 0.080584 1.000000
vt -0.402210 -0.000000
vt -0.402210 1.000000
vt -0.335936 -0.000000
vt -0.335936 1.000000
vt -0.269662 -0.000000
vt -0.269662 1.000000
vt -0.203388 -0.000000
vt -0.203388 1.000000
vt -0.137113 -0.000000
vt -0.137113 1.000000
vt -0.070839 -0.000000
vt -0.004565 -0.000000
vt -0.004565 1.000000
vt -0.070839 1.000000
vt 1.402210 1.000000
vt 1.402210 -0.000000
vt 1.335936 1.000000
vt 1.335936 -0.000000
vt 1.269662 1.000000
vt 1.269662 -0.000000
vt 1.203388 1.000000
vt 1.203388 -0.000000
vt 1.137113 1.000000
vt 1.070839 1.000000
vt 1.070839 -0.000000
vt 1.137113 -0.000000
vt 1.004565 1.000000
vt 1.004565 -0.000000
vt 0.938291 1.000000
vt -0.047191 1.000000
vt -0.012774 1.000000
vt -0.047191 -0.000000
vt 0.021643 1.000000
vt -0.012774 -0.000000
vt 0.056060 1.000000
vt 0.021643 -0.000000
vt 0.090477 1.000000
vt 0.056060 -0.000000
vt 0.124894 1.000000
vt 0.090477 -0.000000
vt 0.159311 1.000000
vt 0.124894 -0.000000
vt 0.159311 -0.000000
vt 1.000000 0.000000
vt 1.000000 1.000000
vt 0.000000 1.000000
vt 0.000000 0.000000
vt 0.983883 0.964185
vt 0.955231 0.984082
vt 0.064467 0.991046
vt 0.028652 0.975128
vt 0.007163 0.951252
vt 0.001791 0.063671
vt 0.978475 0.972574
vt 0.940208 0.987811
vt 0.086101 0.993143
vt 0.038267 0.980954
vt 0.009567 0.962670
vt 0.002392 0.048758
vt 1.214916 -0.000000
vt 1.534759 1.000000
vt -0.116025 -0.000000
vn 0.000000 -1.000000 -0.000000
vn -0.000000 1.000000 -0.000000
vn 1.000000 0.000000 0.000600
vn 0.999600 0.000000 0.029900
vn 0.030000 -0.000000 -0.999600
vn -0.028800 0.000000 -0.999600
vn -0.999500 -0.000000 -0.030000
vn -0.999500 0.000000 -0.030100
vn -1.000000 0.000000 -0.000600
vn -0.030000 -0.000000 0.999500
vn 0.028800 0.000000 0.999600
vn 0.999600 -0.000000 -0.028700
vn -0.999600 0.000000 0.028800
vn 0.000000 1.000000 -0.000600
vn 0.000600 0.000000 -1.000000
vn -0.999600 0.000000 -0.029900
vn -0.999600 -0.000000 0.028700
vn -0.000600 0.000000 1.000000
vn -0.029900 0.000000 0.999600
vn 0.999600 -0.000000 -0.028800
vn 0.028700 0.000000 0.999600
vn 0.991900 -0.000000 -0.127400
vn 0.991700 0.000000 0.128600
vn -0.127000 0.000000 -0.991900
vn -0.991900 -0.000000 0.127400
vn 0.128200 0.000000 -0.991700
vn 0.128300 0.000000 -0.991700
vn -0.991900 0.000000 0.127100
vn 0.127000 0.000000 0.991900
vn 0.960400 0.000000 -0.278700
vn 0.960600 0.000000 -0.278000
vn 0.892700 0.000000 -0.450600
vn 0.893200 -0.000000 -0.449600
vn 0.780000 -0.000000 -0.625800
vn 0.625700 -0.000200 -0.780100
vn 0.450400 0.000000 -0.892800
vn 0.625700 0.000000 -0.780100
vn 0.279000 -0.000000 -0.960300
vn 0.960100 0.000000 0.279600
vn 0.892400 0.000000 0.451300
vn 0.779100 0.000000 0.626900
vn 0.624700 0.000000 0.780900
vn 0.779200 -0.000100 0.626800
vn 0.624700 -0.000100 0.780900
vn 0.449300 0.000000 0.893400
vn 0.277900 0.000000 0.960600
vn 0.277800 0.000000 0.960600
vn -0.277800 0.000000 -0.960600
vn -0.449300 -0.000000 -0.893400
vn -0.624700 -0.000000 -0.780800
vn -0.779200 -0.000100 -0.626800
vn -0.624700 0.000000 -0.780900
vn -0.892300 -0.000300 -0.451400
vn -0.779200 0.000000 -0.626800
vn -0.960100 0.000000 -0.279600
vn -0.892300 0.000000 -0.451400
vn -0.991700 0.000000 -0.128600
vn -0.991700 0.000000 -0.128300
vn -0.960500 -0.000000 0.278400
vn -0.892900 0.000000 0.450200
vn -0.960400 -0.000000 0.278500
vn -0.779900 0.000000 0.625900
vn -0.892900 0.000100 0.450200
vn -0.625700 0.000000 0.780100
vn -0.450400 0.000000 0.892800
vn -0.279000 0.000000 0.960300
vn -0.128200 0.000000 0.991700
vn -0.449700 0.000000 -0.893200
vn -0.449100 -0.000000 -0.893500
vn -0.624800 0.000000 -0.780800
vn -0.624800 -0.000100 -0.780800
vn -0.779100 0.000000 -0.626900
vn -0.779100 -0.000100 -0.626900
vn -0.892300 -0.000100 -0.451400
vn -0.991700 0.000000 -0.128500
vn 0.279200 0.000000 -0.960200
vn 0.278900 -0.000000 -0.960300
vn 0.625700 0.000000 -0.780000
vn 0.625700 0.000200 -0.780100
vn 0.780000 -0.000100 -0.625800
vn 0.892900 0.000000 -0.450300
vn 0.960500 0.000000 -0.278400
vn 0.991900 0.000000 -0.127100
vn -0.892900 0.000000 0.450300
vn -0.780000 -0.000000 0.625800
vn -0.625700 -0.000000 0.780000
vn -0.450400 0.000100 0.892800
vn -0.128300 -0.000000 0.991700
vn 0.127100 0.000000 0.991900
vn 0.449300 -0.000400 0.893400
vn 0.624800 -0.000100 0.780800
vn 0.624700 0.000000 0.780800
vn 0.892300 0.000000 0.451400
vn 0.779200 0.000000 0.626800
vn 0.991700 0.000000 0.128500
vn 0.000000 1.000000 0.000100
vn 0.000000 -1.000000 0.000100
vn 0.000000 1.000000 0.000300
vn 0.000000 1.000000 -0.000700
vn 0.991700 0.000000 0.128300
usemtl _objectos_ChrisMaterial__3.001
s 1
f 1/1/1 2/2/1 3/3/1
f 4/4/1 5/5/1 3/3/1
f 6/6/1 5/5/1 4/4/1
f 7/7/1 5/5/1 6/6/1
f 5/5/1 7/7/1 8/8/1
f 8/8/1 9/9/1 10/10/1
f 10/10/1 11/11/1 12/12/1
f 11/11/1 10/10/1 13/13/1
f 14/14/1 15/15/1 13/13/1
f 16/16/1 17/17/1 14/14/1
f 18/18/1 16/16/1 10/10/1
f 19/19/2 20/20/2 21/21/2
f 22/22/2 23/9/2 21/21/2
f 24/23/2 23/9/2 22/22/2
f 25/24/2 23/9/2 24/23/2
f 26/25/2 27/10/2 23/9/2
f 28/26/2 27/10/2 26/25/2
f 29/27/2 30/28/2 31/29/2
f 32/30/2 33/31/2 29/27/2
f 34/32/2 35/33/2 32/30/2
f 34/32/2 26/25/2 36/34/2
f 27/9/3 28/19/4 18/26/4
f 37/35/5 38/36/6 39/37/6
f 40/19/7 41/26/8 9/10/9
f 1/35/10 5/36/11 36/37/11
f 42/21/1 9/9/1 41/19/1
f 43/22/1 9/9/1 42/21/1
f 44/23/1 9/9/1 43/22/1
f 45/24/1 9/9/1 44/23/1
f 9/9/1 45/24/1 38/25/1
f 46/32/1 38/25/1 37/34/1
f 47/30/1 38/25/1 46/32/1
f 48/27/1 38/25/1 47/30/1
f 49/29/1 38/25/1 48/27/1
f 50/26/1 10/10/1 38/25/1
f 51/18/2 52/16/2 53/17/2
f 54/15/2 27/10/2 53/17/2
f 55/38/2 27/10/2 54/15/2
f 56/12/2 27/10/2 55/38/2
f 27/10/2 56/12/2 57/5/2
f 58/3/2 57/5/2 39/1/2
f 59/4/2 57/5/2 58/3/2
f 60/6/2 57/5/2 59/4/2
f 60/6/2 61/39/2 62/7/2
f 40/8/2 23/9/2 57/5/2
f 50/18/12 51/8/12 27/9/3
f 8/18/13 19/8/13 23/9/9
f 63/40/1 64/41/1 65/42/1
f 66/43/1 64/41/1 63/40/1
f 67/44/1 64/41/1 66/43/1
f 67/44/1 68/45/1 69/46/1
f 70/47/1 71/10/1 64/41/1
f 70/47/1 72/9/1 71/10/1
f 73/48/1 74/49/1 64/41/1
f 75/50/1 76/51/1 73/48/1
f 77/52/1 78/53/1 75/50/1
f 79/54/1 80/55/1 77/52/1
f 81/56/1 79/54/1 71/10/1
f 82/57/2 83/58/2 84/59/2
f 85/60/2 86/9/2 84/59/2
f 87/61/2 86/9/2 85/60/2
f 88/62/2 86/9/2 87/61/2
f 89/63/2 90/10/2 86/9/2
f 91/64/2 90/10/2 89/63/2
f 92/65/2 93/66/14 94/67/2
f 95/68/2 96/69/2 92/65/2
f 97/70/2 98/71/2 95/68/2
f 97/70/2 89/63/2 99/72/2
f 81/64/5 71/10/15 90/9/15
f 100/73/16 101/74/16 102/75/17
f 86/9/18 103/57/19 104/64/19
f 89/73/4 65/74/4 64/75/20
f 105/59/1 72/9/1 104/57/1
f 106/60/1 72/9/1 105/59/1
f 107/61/1 72/9/1 106/60/1
f 108/62/1 72/9/1 107/61/1
f 102/63/1 71/10/1 72/9/1
f 109/70/1 102/63/1 101/72/1
f 110/68/1 102/63/1 109/70/1
f 111/65/1 102/63/1 110/68/1
f 112/67/1 102/63/1 111/65/1
f 113/64/1 71/10/1 102/63/1
f 114/55/2 90/10/2 115/56/2
f 116/53/2 90/10/2 114/55/2
f 117/51/2 90/10/2 116/53/2
f 117/51/2 118/48/2 119/49/2
f 90/10/2 119/49/2 100/41/2
f 120/42/2 121/76/2 122/40/2
f 123/43/2 100/41/2 122/40/2
f 124/44/2 100/41/2 123/43/2
f 125/46/2 100/41/2 124/44/2
f 100/41/2 125/46/2 103/47/2
f 115/47/6 90/9/15 71/10/15
f 72/10/18 70/56/21 82/47/21
f 52/77/22 51/78/12 50/79/12
f 18/80/4 28/81/4 31/82/23
f 126/83/24 39/84/6 38/85/6
f 19/78/13 8/79/13 7/86/25
f 127/87/24 115/88/6 113/89/6
f 94/90/26 79/91/27 81/92/5
f 108/93/25 121/94/28 120/95/17
f 82/88/21 70/89/21 69/96/29
f 128/97/30 53/98/31 52/77/22
f 129/99/32 53/98/31 128/97/30
f 129/99/32 48/100/33 130/101/34
f 54/102/34 130/101/34 47/103/35
f 131/104/36 55/105/36 132/106/37
f 55/105/36 131/104/36 46/107/38
f 133/108/26 56/109/26 134/110/38
f 56/109/26 133/108/26 37/35/5
f 31/82/23 30/111/39 17/112/39
f 30/111/39 29/113/40 14/114/40
f 15/115/41 14/114/40 29/113/40
f 13/116/42 15/115/41 33/117/43
f 32/118/44 35/119/45 135/120/45
f 35/119/45 34/121/46 11/122/47
f 12/123/29 11/122/47 34/121/46
f 5/36/11 12/123/29 136/124/29
f 58/125/48 126/83/24 45/126/24
f 137/127/49 58/125/48 138/128/48
f 59/129/50 137/127/49 44/130/49
f 139/131/51 59/129/50 140/132/52
f 60/133/53 139/131/51 43/134/54
f 61/135/55 60/133/53 141/136/56
f 62/137/57 61/135/55 42/138/55
f 62/137/57 142/139/58 41/26/8
f 21/98/59 20/77/28 7/86/25
f 143/99/60 21/98/59 144/97/61
f 22/102/62 143/99/60 6/100/63
f 145/106/64 22/102/62 146/101/62
f 24/105/65 145/106/64 4/103/64
f 147/110/66 24/105/65 148/104/65
f 25/109/67 147/110/66 3/107/66
f 1/35/10 26/140/10 25/109/67
f 112/96/24 149/141/48 114/142/48
f 149/141/48 111/143/68 150/144/69
f 150/144/69 111/143/68 151/145/70
f 116/146/71 151/145/70 110/147/72
f 152/148/73 110/147/72 153/149/56
f 117/150/74 153/149/56 109/151/55
f 154/152/75 119/153/75 118/154/55
f 101/74/16 100/73/16 119/153/75
f 94/90/26 93/155/76 80/156/77
f 80/156/77 93/155/76 92/157/36
f 77/158/36 92/157/36 96/159/78
f 78/160/79 96/159/78 95/161/34
f 75/162/80 95/161/34 98/163/81
f 97/164/82 73/165/82 76/166/81
f 155/167/22 74/168/83 73/165/82
f 155/167/22 99/169/20 64/75/20
f 122/170/59 121/94/28 108/93/25
f 156/171/84 122/170/59 157/172/61
f 123/173/62 156/171/84 107/174/84
f 158/175/64 123/173/62 159/176/85
f 124/177/65 158/175/64 106/178/86
f 160/179/66 124/177/65 161/180/87
f 125/181/67 160/179/66 105/182/66
f 125/181/67 162/183/88 104/64/19
f 84/142/47 83/87/89 69/96/29
f 163/144/90 84/142/47 68/141/47
f 85/146/91 163/144/90 67/143/45
f 164/148/43 85/146/91 165/145/92
f 87/150/93 164/148/43 66/147/94
f 166/154/39 87/150/93 167/149/93
f 88/153/95 166/154/39 63/151/39
f 89/73/4 88/153/95 168/152/95
f 169/184/1 170/185/1 171/186/1
f 172/187/2 173/184/2 174/185/2
f 172/186/3 169/187/3 175/184/3
f 175/187/15 171/184/15 174/185/15
f 171/187/9 170/184/9 176/185/9
f 170/187/18 169/184/18 172/185/18
f 177/184/1 178/185/1 179/186/1
f 180/187/2 181/184/2 182/185/2
f 177/187/15 183/184/15 181/185/15
f 183/187/9 179/184/9 182/185/9
f 179/187/18 178/184/18 184/185/18
f 184/186/3 178/187/3 177/184/3
f 5/5/1 1/1/1 3/3/1
f 148/188/1 4/4/1 3/3/1
f 146/189/1 6/6/1 4/4/1
f 144/39/1 7/7/1 6/6/1
f 10/10/1 5/5/1 8/8/1
f 5/5/1 10/10/1 12/12/1
f 135/38/1 11/11/1 13/13/1
f 10/10/1 14/14/1 13/13/1
f 10/10/1 16/16/1 14/14/1
f 23/9/2 19/19/2 21/21/2
f 143/190/2 22/22/2 21/21/2
f 145/191/2 24/23/2 22/22/2
f 147/192/2 25/24/2 24/23/2
f 25/24/2 26/25/2 23/9/2
f 31/29/2 28/26/2 26/25/2
f 26/25/2 29/27/2 31/29/2
f 26/25/2 32/30/2 29/27/2
f 26/25/2 34/32/2 32/30/2
f 136/193/96 34/32/2 36/34/2
f 10/10/3 27/9/3 18/26/4
f 57/140/5 37/35/5 39/37/6
f 23/9/9 40/19/7 9/10/9
f 26/140/10 1/35/10 36/37/11
f 142/20/1 42/21/1 41/19/1
f 141/190/1 43/22/1 42/21/1
f 140/191/1 44/23/1 43/22/1
f 138/192/97 45/24/1 44/23/1
f 10/10/1 9/9/1 38/25/1
f 133/193/1 46/32/1 37/34/1
f 131/33/1 47/30/1 46/32/1
f 130/31/1 48/27/1 47/30/1
f 128/28/1 49/29/1 48/27/1
f 49/29/1 50/26/1 38/25/1
f 27/10/2 51/18/2 53/17/2
f 129/14/2 54/15/2 53/17/2
f 132/13/2 55/38/2 54/15/2
f 134/11/2 56/12/2 55/38/2
f 23/9/2 27/10/2 57/5/2
f 126/2/98 58/3/2 39/1/2
f 137/188/2 59/4/2 58/3/2
f 139/189/2 60/6/2 59/4/2
f 57/5/2 60/6/2 62/7/2
f 62/7/2 40/8/2 57/5/2
f 10/10/3 50/18/12 27/9/3
f 9/10/9 8/18/13 23/9/9
f 168/76/1 63/40/1 65/42/1
f 167/194/1 66/43/1 63/40/1
f 165/195/1 67/44/1 66/43/1
f 64/41/1 67/44/1 69/46/1
f 69/46/1 70/47/1 64/41/1
f 71/10/1 73/48/1 64/41/1
f 71/10/1 75/50/1 73/48/1
f 71/10/1 77/52/1 75/50/1
f 71/10/1 79/54/1 77/52/1
f 86/9/2 82/57/2 84/59/2
f 163/196/2 85/60/2 84/59/2
f 164/197/2 87/61/2 85/60/2
f 166/198/2 88/62/2 87/61/2
f 88/62/2 89/63/2 86/9/2
f 94/67/2 91/64/2 89/63/2
f 89/63/2 92/65/2 94/67/2
f 89/63/2 95/68/2 92/65/2
f 89/63/2 97/70/2 95/68/2
f 155/199/2 97/70/2 99/72/2
f 91/57/5 81/64/5 90/9/15
f 120/169/17 100/73/16 102/75/17
f 72/10/18 86/9/18 104/64/19
f 99/169/20 89/73/4 64/75/20
f 162/58/97 105/59/1 104/57/1
f 161/196/1 106/60/1 105/59/1
f 159/197/1 107/61/1 106/60/1
f 157/198/1 108/62/1 107/61/1
f 108/62/1 102/63/1 72/9/1
f 154/199/1 109/70/1 101/72/1
f 153/71/1 110/68/1 109/70/1
f 151/69/1 111/65/1 110/68/1
f 149/66/1 112/67/1 111/65/1
f 112/67/1 113/64/1 102/63/1
f 127/54/2 114/55/2 115/56/2
f 150/52/2 116/53/2 114/55/2
f 152/50/2 117/51/2 116/53/2
f 90/10/2 117/51/2 119/49/2
f 86/9/2 90/10/2 100/41/2
f 100/41/2 120/42/2 122/40/2
f 156/194/2 123/43/2 122/40/2
f 158/195/99 124/44/2 123/43/2
f 160/45/2 125/46/2 124/44/2
f 86/9/2 100/41/2 103/47/2
f 113/56/6 115/47/6 71/10/15
f 86/9/18 72/10/18 82/47/21
f 49/86/83 52/77/22 50/79/12
f 16/200/100 18/80/4 31/82/23
f 45/126/24 126/83/24 38/85/6
f 20/77/28 19/78/13 7/86/25
f 112/96/24 127/87/24 113/89/6
f 91/201/5 94/90/26 81/92/5
f 102/202/17 108/93/25 120/95/17
f 83/87/89 82/88/21 69/96/29
f 49/86/83 128/97/30 52/77/22
f 48/100/33 129/99/32 128/97/30
f 54/102/34 129/99/32 130/101/34
f 132/106/37 54/102/34 47/103/35
f 47/103/35 131/104/36 132/106/37
f 134/110/38 55/105/36 46/107/38
f 46/107/38 133/108/26 134/110/38
f 57/140/5 56/109/26 37/35/5
f 16/200/100 31/82/23 17/112/39
f 17/112/39 30/111/39 14/114/40
f 33/117/43 15/115/41 29/113/40
f 32/118/44 13/116/42 33/117/43
f 13/116/42 32/118/44 135/120/45
f 135/120/45 35/119/45 11/122/47
f 136/124/29 12/123/29 34/121/46
f 36/37/11 5/36/11 136/124/29
f 138/128/48 58/125/48 45/126/24
f 44/130/49 137/127/49 138/128/48
f 140/132/52 59/129/50 44/130/49
f 43/134/54 139/131/51 140/132/52
f 141/136/56 60/133/53 43/134/54
f 42/138/55 61/135/55 141/136/56
f 142/139/58 62/137/57 42/138/55
f 40/19/7 62/137/57 41/26/8
f 144/97/61 21/98/59 7/86/25
f 6/100/63 143/99/60 144/97/61
f 146/101/62 22/102/62 6/100/63
f 4/103/64 145/106/64 146/101/62
f 148/104/65 24/105/65 4/103/64
f 3/107/66 147/110/66 148/104/65
f 2/108/88 25/109/67 3/107/66
f 2/108/88 1/35/10 25/109/67
f 127/87/24 112/96/24 114/142/48
f 114/142/48 149/141/48 150/144/69
f 116/146/71 150/144/69 151/145/70
f 152/148/73 116/146/71 110/147/72
f 117/150/74 152/148/73 153/149/56
f 118/154/55 117/150/74 109/151/55
f 109/151/55 154/152/75 118/154/55
f 154/152/75 101/74/16 119/153/75
f 79/91/27 94/90/26 80/156/77
f 77/158/36 80/156/77 92/157/36
f 78/160/79 77/158/36 96/159/78
f 75/162/80 78/160/79 95/161/34
f 76/166/81 75/162/80 98/163/81
f 98/163/81 97/164/82 76/166/81
f 97/164/82 155/167/22 73/165/82
f 74/168/83 155/167/22 64/75/20
f 157/172/61 122/170/59 108/93/25
f 107/174/84 156/171/84 157/172/61
f 159/176/85 123/173/62 107/174/84
f 106/178/86 158/175/64 159/176/85
f 161/180/87 124/177/65 106/178/86
f 105/182/66 160/179/66 161/180/87
f 162/183/88 125/181/67 105/182/66
f 103/57/19 125/181/67 104/64/19
f 68/141/47 84/142/47 69/96/29
f 67/143/45 163/144/90 68/141/47
f 165/145/92 85/146/91 67/143/45
f 66/147/94 164/148/43 165/145/92
f 167/149/93 87/150/93 66/147/94
f 63/151/39 166/154/39 167/149/93
f 168/152/95 88/153/95 63/151/39
f 65/74/4 89/73/4 168/152/95
f 175/187/1 169/184/1 171/186/1
f 176/186/2 172/187/2 174/185/2
f 173/185/3 172/186/3 175/184/3
f 173/186/15 175/187/15 174/185/15
f 174/186/9 171/187/9 176/185/9
f 176/186/18 170/187/18 172/185/18
f 183/187/1 177/184/1 179/186/1
f 184/186/2 180/187/2 182/185/2
f 180/186/15 177/187/15 181/185/15
f 181/186/9 183/187/9 182/185/9
f 182/186/18 179/187/18 184/185/18
f 180/185/3 184/186/3 177/184/3
